<?xml version="1.0" standalone="no"?>
<!DOCTYPE svg PUBLIC "-//W3C//DTD SVG 1.1//EN" "http://www.w3.org/Graphics/SVG/1.1/DTD/svg11.dtd" >
<svg xmlns="http://www.w3.org/2000/svg">
<metadata></metadata>
<defs>
<font id="letstracebasic" horiz-adv-x="757" >
<font-face units-per-em="2048" ascent="1565" descent="-483" />
<missing-glyph horiz-adv-x="831" />
<glyph unicode="&#xfb01;" horiz-adv-x="866" d="M55 465q0 9 6 18q10 17 31 17h82v254q0 75 53.5 129.5t126.5 54.5q74 0 127.5 -54.5t53.5 -129.5q0 -22 -19 -31q-18 -11 -35 0q-18 11 -18 31q0 46 -31.5 78t-77.5 32t-77 -32t-31 -78v-254h88q17 0 31 -17q9 -19 0 -34q-13 -19 -31 -19h-88v-395q0 -21 -19 -31 q-12 -4 -16 -4q-6 0 -18 4q-19 10 -19 31v395h-82q-22 0 -31 19q-6 6 -6 16zM668 715q0 22 15 36.5t38 14.5q22 0 36.5 -14.5t14.5 -36.5q0 -23 -14.5 -38t-36.5 -15q-23 0 -38 15t-15 38zM684 35v405q0 14 11 24.5t24 10.5t26 -10q11 -11 11 -25v-405q0 -21 -19 -31 q-8 -4 -16 -4q-7 0 -19 4q-18 11 -18 31z" />
<glyph unicode="&#xfb02;" horiz-adv-x="856" d="M55 465q0 9 6 18q10 17 31 17h82v254q0 75 53.5 129.5t126.5 54.5q74 0 127.5 -54.5t53.5 -129.5q0 -22 -19 -31q-18 -11 -35 0q-18 11 -18 31q0 46 -31.5 78t-77.5 32t-77 -32t-31 -78v-254h88q17 0 31 -17q9 -19 0 -34q-13 -19 -31 -19h-88v-395q0 -21 -19 -31 q-12 -4 -16 -4q-6 0 -18 4q-19 10 -19 31v395h-82q-22 0 -31 19q-6 6 -6 16zM686 35v866q0 15 10 26t25 11q14 0 24 -10q11 -11 11 -27v-866q0 -21 -17 -31q-12 -4 -18 -4q-8 0 -16 4q-19 10 -19 31z" />
<glyph unicode="&#xfb03;" horiz-adv-x="1445" d="M55 465q0 9 6 18q10 17 31 17h82v254q0 75 53.5 129.5t126.5 54.5q74 0 127.5 -54.5t53.5 -129.5q0 -22 -19 -31q-18 -11 -35 0q-18 11 -18 31q0 46 -31.5 78t-77.5 32t-77 -32t-31 -78v-254h88q17 0 31 -17q9 -19 0 -34q-13 -19 -31 -19h-88v-395q0 -21 -19 -31 q-12 -4 -16 -4q-6 0 -18 4q-19 10 -19 31v395h-82q-22 0 -31 19q-6 6 -6 16zM635 465q0 9 6 18q10 17 31 17h82v254q0 75 53.5 129.5t126.5 54.5t126.5 -54.5t53.5 -129.5q0 -22 -18 -31q-18 -11 -35 0q-19 11 -19 31q0 46 -31 78t-77 32t-77.5 -32t-31.5 -78v-254h88 q17 0 31 -17q9 -19 0 -34q-13 -19 -31 -19h-88v-395q0 -22 -18 -31q-12 -4 -16 -4q-7 0 -19 4q-18 9 -18 31v395h-82q-22 0 -31 19q-6 6 -6 16zM1247 715q0 22 15 36.5t38 14.5q22 0 37 -14.5t15 -36.5q0 -23 -15 -38t-37 -15q-23 0 -38 15t-15 38zM1264 35v405 q0 14 10.5 24.5t23.5 10.5q14 0 27 -10q10 -10 10 -25v-405q0 -22 -18 -31q-8 -4 -17 -4q-6 0 -18 4q-18 11 -18 31z" />
<glyph unicode="&#xfb04;" horiz-adv-x="1435" d="M55 465q0 9 6 18q10 17 31 17h82v254q0 75 53.5 129.5t126.5 54.5q74 0 127.5 -54.5t53.5 -129.5q0 -22 -19 -31q-18 -11 -35 0q-18 11 -18 31q0 46 -31.5 78t-77.5 32t-77 -32t-31 -78v-254h88q17 0 31 -17q9 -19 0 -34q-13 -19 -31 -19h-88v-395q0 -21 -19 -31 q-12 -4 -16 -4q-6 0 -18 4q-19 10 -19 31v395h-82q-22 0 -31 19q-6 6 -6 16zM635 465q0 9 6 18q10 17 31 17h82v254q0 75 53.5 129.5t126.5 54.5t126.5 -54.5t53.5 -129.5q0 -22 -18 -31q-18 -11 -35 0q-19 11 -19 31q0 46 -31 78t-77 32t-77.5 -32t-31.5 -78v-254h88 q17 0 31 -17q9 -19 0 -34q-13 -19 -31 -19h-88v-395q0 -22 -18 -31q-12 -4 -16 -4q-7 0 -19 4q-18 9 -18 31v395h-82q-22 0 -31 19q-6 6 -6 16zM1266 35v866q0 15 9.5 26t24.5 11t25 -10t10 -27v-866q0 -21 -16 -31q-12 -4 -19 -4q-8 0 -16 4q-18 9 -18 31z" />
<glyph horiz-adv-x="0" />
<glyph horiz-adv-x="682" />
<glyph unicode=" "  horiz-adv-x="831" />
<glyph unicode="&#x09;" horiz-adv-x="831" />
<glyph unicode="&#xa0;" horiz-adv-x="831" />
<glyph unicode="!" horiz-adv-x="274" d="M74 51q0 23 15 38t38 15q22 0 36.5 -15t14.5 -38q0 -22 -14.5 -37.5t-36.5 -15.5q-23 0 -38 15.5t-15 37.5zM92 256v641q0 14 10.5 24.5t24.5 10.5t24.5 -10.5t10.5 -24.5v-641q0 -14 -10.5 -24.5t-24.5 -10.5t-24.5 10.5t-10.5 24.5z" />
<glyph unicode="&#x22;" horiz-adv-x="460" d="M63 869q-8 20 1.5 41t29.5 28q20 8 41 -1t28 -29q9 -23 -12.5 -108.5t-40.5 -92.5q-8 -3 -15 9.5t-11 34.5t-7.5 45t-7 44.5t-6.5 28.5zM268 869q-8 20 1.5 41t29.5 28q20 8 41 -1t28 -29q9 -23 -12.5 -108.5t-40.5 -92.5q-8 -3 -15 9.5t-11 34.5t-7.5 45t-7 44.5 t-6.5 28.5z" />
<glyph unicode="#" horiz-adv-x="919" d="M96 700q0 14 10.5 24.5t24.5 10.5h117v170q0 14 10.5 24.5t24.5 10.5t24 -10.5t10 -24.5v-170h279v170q0 14 10.5 24.5t24.5 10.5t24.5 -10.5t10.5 -24.5v-170h112q14 0 24.5 -10.5t10.5 -24.5t-10.5 -24t-24.5 -10h-112v-324h125q14 0 24 -10.5t10 -24.5t-10 -24.5 t-24 -10.5h-125v-235q0 -14 -10.5 -24.5t-24.5 -10.5t-24.5 10.5t-10.5 24.5v235h-279v-235q0 -14 -10 -24.5t-24 -10.5t-24.5 10.5t-10.5 24.5v235h-105q-14 0 -24 10.5t-10 24.5t10 24.5t24 10.5h105v324h-117q-14 0 -24.5 10t-10.5 24zM317 342h279v324h-279v-324z" />
<glyph unicode="$" horiz-adv-x="843" d="M74 164q0 6 2 8q3 20 24 27q21 3 35 -11q91 -91 207 -114q30 -6 64 -6v390q-46 13 -58 17q-87 30 -135 92q-49 68 -49 144q0 100 82 161q66 49 160 58v49q0 14 10 24.5t24 10.5t24.5 -10.5t10.5 -24.5v-49q114 -9 207 -78q14 -8 14 -29q0 -11 -6 -20q-11 -15 -28 -15 q-10 0 -21 7q-74 53 -166 62v-344q3 -1 27 -7q87 -28 125 -49q46 -27 74 -55.5t36 -73.5q8 -36 8 -70q0 -38 -12 -72q-19 -57 -90 -112q-72 -55 -168 -69v-58q0 -14 -10.5 -24.5t-24.5 -10.5t-24 10.5t-10 24.5v53q-51 0 -78 6q-137 26 -242 131q-12 12 -12 27zM236 709 q0 -56 34 -99q30 -43 101 -67q24 -8 35 -11v324q-76 -8 -117 -41q-53 -39 -53 -106zM475 74q69 14 125 55q54 43 68 82q8 28 8 47q0 24 -8 55q-3 17 -15 32.5t-24 24.5t-37 25q-34 19 -113 43l-4 2v-366z" />
<glyph unicode="%" horiz-adv-x="1019" d="M84 682q2 46 18 81t38 53.5t48.5 30t45 14.5t32.5 3q56 -2 96 -25t57 -55.5t24 -57.5t6 -44q-2 -46 -18.5 -81t-38 -53.5t-48.5 -30t-45.5 -14.5t-32.5 -3q-46 2 -81 18t-53.5 38t-30 48.5t-14.5 45t-3 32.5zM128 68q0 14 10 25l687 685q11 10 25 10t25 -10t11 -24 t-11 -25l-688 -685q-11 -10 -25 -10t-24 10t-10 24zM154 682q-1 -12 3.5 -27.5t15 -35.5t35 -34.5t58.5 -15.5q11 0 27 4t36 14.5t34.5 35.5t15.5 59q0 11 -4 27t-14.5 36t-35.5 34.5t-59 15.5q-11 0 -27 -4t-35.5 -14.5t-34 -35.5t-15.5 -59zM545 180q2 46 18 81t38 53.5 t48.5 30t45 14.5t32.5 3q46 -2 81 -18t53.5 -38t30 -48.5t14.5 -45t3 -32.5q-2 -46 -18 -81t-38 -53.5t-48.5 -30t-45 -14.5t-32.5 -3q-46 2 -81 18t-53.5 38t-30 48.5t-14.5 45t-3 32.5zM614 180q0 -11 4 -27t14.5 -35.5t35.5 -34t59 -15.5q12 -1 27.5 3.5t35.5 15t34.5 35 t15.5 58.5q0 11 -4 27t-14.5 36t-35.5 34.5t-59 15.5q-11 0 -27 -4t-36 -14.5t-34.5 -35.5t-15.5 -59z" />
<glyph unicode="&#x26;" horiz-adv-x="1083" d="M127 266q2 74 48 115t130 69q-98 111 -101 260q0 18 5 43t20 58t38.5 60t64 46.5t92.5 20.5q47 1 99.5 -14t99 -42.5t77 -73t31.5 -98.5q1 -55 -16 -99t-42.5 -73t-67.5 -53.5t-77 -38t-86 -29.5q84 -67 285 -185q64 76 122 209q6 13 18.5 18.5t26.5 0.5t19.5 -18.5 t-0.5 -27.5q-57 -132 -126 -217q111 -66 191 -120q12 -8 15 -22t-5 -26t-22.5 -14.5t-26.5 5.5q-88 58 -198 125q-132 -132 -306 -139q-25 -1 -61 5.5t-80.5 25t-81.5 46.5t-61.5 76t-23.5 107zM196 266q-1 -43 18.5 -78.5t48.5 -56t63.5 -34t61.5 -18.5t45 -4 q139 7 246 107q-87 52 -125 75t-96 62.5t-96 73.5q-81 -25 -123 -52.5t-43 -74.5zM274 710q1 -130 106 -238q34 9 47 13t44 14t45 16.5t38.5 18.5t36.5 23.5t28.5 28t23.5 34t12.5 41t5.5 49.5q-1 67 -79.5 113.5t-157.5 44.5q-42 -1 -74 -20.5t-47 -47.5t-22 -51t-7 -39z " />
<glyph unicode="'" horiz-adv-x="227" d="M63 869q-8 20 1.5 41t29.5 28q20 8 41 -1t28 -29q9 -23 -12.5 -108.5t-40.5 -92.5q-8 -3 -15 9.5t-11 34.5t-7.5 45t-7 44.5t-6.5 28.5z" />
<glyph unicode="(" horiz-adv-x="536" d="M106 233q-1 52 6.5 109t18 104t30.5 103.5t34 92t39.5 87t36 72t34 62.5t24.5 43q6 12 19 19t26 3q15 -5 21 -19.5t-3 -32.5q-90 -158 -130 -252q-87 -209 -86 -391q1 -105 35 -223.5t70 -193t82 -157.5t49 -89q6 -13 1.5 -26.5t-17.5 -19.5q-13 -7 -27 -1t-19 17 q-8 15 -46.5 84t-65.5 125t-60.5 137.5t-52 170.5t-19.5 176z" />
<glyph unicode=")" horiz-adv-x="536" d="M108.5 906.5q4.5 13.5 17.5 19.5q13 7 27 1t19 -17q8 -15 46.5 -84t65.5 -125t60.5 -137.5t52 -170.5t19.5 -176q1 -52 -6.5 -109t-18 -104t-30.5 -103.5t-34 -92t-39.5 -87t-36 -72t-34 -62.5t-24.5 -43q-17 -31 -44 -22q-15 5 -21.5 19.5t2.5 32.5q90 158 130 252 q87 209 86 391q-1 105 -35 223.5t-70 193t-82 157.5t-49 89q-6 13 -1.5 26.5z" />
<glyph unicode="*" d="M89 692q0 14 10 24.5t24 10.5h189l-94 163q-8 13 -4.5 27t16.5 21t26.5 3.5t21.5 -16.5l94 -163l94 163q8 13 21.5 16.5t26.5 -3.5q13 -8 16.5 -21.5t-3.5 -26.5l-94 -163h188q14 0 24.5 -10.5t10.5 -24.5t-10.5 -24.5t-24.5 -10.5h-188l94 -163q7 -13 3.5 -26.5 t-16.5 -21.5q-13 -7 -26.5 -3.5t-21.5 16.5l-94 163l-94 -163q-8 -13 -21.5 -16.5t-26.5 3.5t-16.5 21t4.5 27l94 163h-189q-14 0 -24 10.5t-10 24.5z" />
<glyph unicode="+" d="M70 307q0 14 10 24.5t24 10.5h214v210q0 14 10.5 24.5t24.5 10.5t24.5 -10.5t10.5 -24.5v-210h214q14 0 24.5 -10.5t10.5 -24.5t-10.5 -24.5t-24.5 -10.5h-214v-218q0 -14 -10.5 -24.5t-24.5 -10.5t-24.5 10.5t-10.5 24.5v218h-214q-14 0 -24 10.5t-10 24.5z" />
<glyph unicode="," horiz-adv-x="264" d="M57.5 -111q-1.5 14 2 36.5t8.5 45t9.5 43.5t4.5 29q0 22 15.5 37.5t37.5 15.5t37.5 -15.5t15.5 -37.5q0 -25 -49.5 -96.5t-70.5 -71.5q-9 0 -10.5 14z" />
<glyph unicode="-" d="M70 307q0 14 10 24.5t24 10.5h498q14 0 24.5 -10.5t10.5 -24.5t-10.5 -24.5t-24.5 -10.5h-498q-14 0 -24 10.5t-10 24.5z" />
<glyph unicode="." horiz-adv-x="274" d="M74 51q0 23 15 38t38 15q22 0 36.5 -15t14.5 -38q0 -22 -14.5 -37.5t-36.5 -15.5q-23 0 -38 15.5t-15 37.5z" />
<glyph unicode="/" horiz-adv-x="720" d="M109 21q-5 14 1 27l411 878q6 13 20 18t27 -1t17.5 -19.5t-1.5 -26.5l-411 -879q-6 -13 -19.5 -18t-26.5 1t-18 20z" />
<glyph unicode="0" horiz-adv-x="1050" d="M90 356q0 33 1 98.5t1 98.5q0 127 80 227q59 77 150.5 121.5t191.5 44.5q134 0 244 -67q87 -50 140.5 -133.5t53.5 -174.5v-200q0 -87 -49.5 -167t-130.5 -132q-106 -72 -250 -72q-139 0 -243 68q-83 49 -136 127t-53 161zM160 385q0 -137 102 -223q104 -96 258 -96 q121 0 207 55q69 39 113.5 105t44.5 136q0 33 1 98.5t1 98.5q0 69 -33 132.5t-92 107.5q-100 80 -240 80q-120 0 -209 -60q-69 -39 -111 -103t-42 -134v-197z" />
<glyph unicode="1" horiz-adv-x="389" d="M45 678l170 237q9 13 13 17.5t10.5 9t15.5 4.5q12 0 23.5 -8t11.5 -18v-885q0 -23 -8 -29q-6 -6 -21 -6q-12 0 -24.5 6.5t-12.5 16.5v798l-104 -151q-2 -3 -7 -10t-8.5 -10.5t-9.5 -7.5t-12 -5q-2 -2 -6 -2q-12 0 -20.5 10t-8.5 21q0 1 -1.5 5.5t-0.5 6.5z" />
<glyph unicode="2" horiz-adv-x="788" d="M61 35q0 5 5 20l395 348q37 33 55 49.5t46 47t46 57.5q39 55 39 119q0 87 -61 139q-75 72 -203 72q-96 0 -156 -47q-77 -54 -94 -162q-2 -5 -4 -19.5t-8 -21.5q-6 -14 -25 -14q-12 0 -22 10q-6 4 -9 9.5t-3 9t2 12.5t2 10q21 131 98 200q82 76 219 76q55 0 84 -4 q128 -24 195 -117q51 -66 51 -153q0 -59 -29 -119q-15 -32 -42 -65.5t-43.5 -50t-55.5 -54.5l-367 -321h494q34 0 43 -11q6 -9 6 -20q0 -13 -8 -24t-19 -11h-606q-10 0 -17.5 11t-7.5 24z" />
<glyph unicode="3" horiz-adv-x="888" d="M96 674q0 9 10 49q29 100 103 156q92 67 235 67q139 0 226 -57q53 -33 83.5 -85t30.5 -116q0 -71 -49 -123q-56 -59 -172 -92q77 -20 131 -57q90 -65 90 -160q0 -56 -28 -108.5t-76 -86.5q-90 -61 -246 -61q-138 0 -225 68q-78 56 -109 174q-9 30 0 45q9 12 25 12 q21 0 27 -16q19 -79 43 -115q46 -70 135 -96q56 -15 114 -15q24 0 64 4q109 14 166 74q51 54 51 121q0 46 -24 74t-66 51q-82 45 -219 59q-1 0 -21 1t-30 5q-17 7 -17 29q0 21 19 27q9 2 28.5 3t28.5 3q133 14 219 61q82 48 82 121q0 81 -70 137q-79 60 -209 60 q-118 0 -190 -47q-69 -44 -94 -142q-2 -4 -4 -14.5t-6 -18.5t-11 -12q-6 -6 -14 -6q-12 0 -21.5 8.5t-9.5 18.5z" />
<glyph unicode="4" horiz-adv-x="948" d="M104 274v637q0 25 13 35q3 2 6 2t7 -1t7 -1q33 0 33 -20v-609h434v594v7q0 12 10 22t25 10q11 0 21 -7.5t10 -16.5v-609h157q1 0 10.5 0.5t13 0t9.5 -3t10 -7.5q9 -6 9 -20q0 -11 -7 -23t-16 -12h-186v-199q0 -2 0.5 -11.5t0 -14t-3 -11t-8.5 -10.5q-9 -6 -20 -6 q-12 0 -22.5 6.5t-10.5 16.5q0 38 -1 114.5t-1 114.5h-454q-15 -3 -30.5 3t-15.5 19z" />
<glyph unicode="5" horiz-adv-x="821" d="M104 162q0 1 1 4t1 4q7 20 29 20q13 0 21 -8q25 -33 43 -49q78 -72 190 -72q25 0 35 2q62 6 116.5 39.5t88.5 85.5q39 59 39 138q0 55 -23 100q-26 61 -80 102.5t-121 53.5q-16 4 -53 4q-119 0 -203 -84q-7 -6 -16.5 -18.5t-13.5 -16.5q-6 -4 -19 -4q-12 0 -22.5 5 t-10.5 15v424q0 11 7.5 21t17.5 10h533q18 0 22 -6q6 -6 6 -21q0 -12 -6.5 -21t-17.5 -9h-502v-314q96 80 227 80q70 0 129 -26q69 -28 120 -83t71 -124q14 -41 14 -90q0 -93 -49 -166q-38 -63 -103.5 -106t-138.5 -52h-47q-77 0 -149 34t-119 95q-17 23 -17 33z" />
<glyph unicode="6" horiz-adv-x="954" d="M96 403v109v41v12q0 90 37 168q32 69 89.5 120.5t129.5 74.5q50 18 119 18h21h30q80 0 153.5 -46t119.5 -118q14 -23 14 -32v-11q-7 -20 -29 -20q-15 0 -22 10q-51 84 -127 123q-65 35 -137 35h-11h-14q-67 0 -129 -27t-107.5 -80.5t-64.5 -120.5q-12 -45 -12 -161 q24 28 37 41q112 106 284 106q33 0 47 -2q81 -8 154 -45t121 -100q59 -78 59 -174q0 -23 -2 -33q-7 -65 -45 -122t-96 -95q-110 -74 -238 -74q-145 0 -262 90q-52 40 -84.5 96.5t-32.5 116.5q0 16 -1 49t-1 51zM156 324q0 -27 6 -48q23 -105 135 -167q85 -48 180 -48 q105 0 193 54q52 31 86.5 79.5t40.5 106.5q2 8 2 25q0 91 -72 163q-97 97 -250 97q-83 0 -157.5 -33.5t-118.5 -95.5q-45 -61 -45 -133z" />
<glyph unicode="7" horiz-adv-x="886" d="M10 918q0 11 7.5 19.5t17.5 8.5h770q12 0 21.5 -8t9.5 -20q0 -6 -5 -11l-555 -882q-12 -25 -30 -25h-4q-12 0 -20.5 8.5t-8.5 20.5q0 6 2 10l537 850h-705q-37 0 -37 29z" />
<glyph unicode="8" horiz-adv-x="999" d="M94 264q0 70 45 121q70 87 197 121q-84 26 -141 78q-62 58 -62 129v10q0 79 84 141q109 82 272 82q132 0 232 -53q97 -57 121 -135q6 -21 6 -43q0 -49 -29 -92q-54 -80 -166 -115q107 -28 172 -88q78 -64 78 -154v-4q0 -92 -90 -164q-129 -98 -281 -98h-34 q-159 0 -283 78q-98 62 -117 149q-4 12 -4 37zM154 266q0 -38 20 -67q39 -65 133 -101q87 -37 191 -37q72 0 153 23q110 32 164 100q29 42 29 82q0 9 -4 25q-12 58 -84 108q-105 68 -256 68q-119 0 -213 -43q-91 -43 -123 -111q-10 -23 -10 -47zM193 715q0 -2 1 -7t1 -8 q8 -59 81 -102q89 -55 213 -55q7 0 21 1t20 1q116 0 205 73q53 46 53 97q0 1 -1 3.5t-1 4.5q0 53 -67 100q-94 62 -232 62h-28q-123 0 -215 -76q-51 -43 -51 -94z" />
<glyph unicode="9" horiz-adv-x="915" d="M86 664v20q0 94 88 168q113 94 266 94h41q118 0 238 -90q94 -76 94 -168v-301q0 -81 -25 -143q-28 -77 -87.5 -136t-135.5 -85q-59 -23 -129 -23h-41q-82 0 -158 48t-122 122q-13 13 -13 31q0 8 2 12q10 16 27 16q16 0 25 -12q58 -104 166 -139q50 -17 108 -17h14h7 q91 0 170 54q59 41 96 103.5t37 129.5v166q-43 -49 -109 -78q-91 -39 -203 -39q-27 0 -77 4q-132 21 -207 93q-72 69 -72 170zM145 664q0 -40 19 -80q36 -73 129 -105q65 -22 147 -22q43 0 86 6q106 17 172 78q58 52 58 129q0 10 -4 26q-8 70 -86 123q-100 68 -226 68 q-48 0 -104 -17q-116 -31 -168 -116q-23 -44 -23 -90z" />
<glyph unicode=":" horiz-adv-x="274" d="M74 51q0 23 15 38t38 15q22 0 36.5 -15t14.5 -38q0 -22 -14.5 -37.5t-36.5 -15.5q-23 0 -38 15.5t-15 37.5zM74 414q0 23 15 38t38 15q22 0 36.5 -15t14.5 -38q0 -22 -15 -38t-36 -16q-23 0 -38 16t-15 38z" />
<glyph unicode=";" horiz-adv-x="274" d="M52.5 -111q-1.5 14 2.5 36.5t9 45t9.5 43.5t4.5 29q0 22 15.5 37.5t37.5 15.5t37.5 -15.5t15.5 -37.5q0 -25 -50 -96.5t-71 -71.5q-9 0 -10.5 14zM74 414q0 23 15 38t38 15q22 0 36.5 -15t14.5 -38q0 -22 -15 -38t-36 -16q-23 0 -38 16t-15 38z" />
<glyph unicode="&#x3c;" horiz-adv-x="923" d="M153 441q0 19 16 30l542 368q12 8 26.5 5.5t22.5 -14.5t5 -26t-15 -22l-498 -339q481 -306 504 -327q10 -10 10 -24t-10 -25q-11 -10 -25 -10t-25 10q-31 27 -63 49.5t-69.5 45.5t-154 95t-249.5 156q-17 12 -17 28z" />
<glyph unicode="=" d="M70 258q0 14 10 24.5t24 10.5h498q14 0 24.5 -10.5t10.5 -24.5t-10.5 -24.5t-24.5 -10.5h-498q-14 0 -24 10.5t-10 24.5zM70 504q0 14 10 24.5t24 10.5h498q14 0 24.5 -10.5t10.5 -24.5t-10.5 -24.5t-24.5 -10.5h-498q-14 0 -24 10.5t-10 24.5z" />
<glyph unicode="&#x3e;" horiz-adv-x="923" d="M154 811q0 15 10 25q11 10 24.5 10t24.5 -10q31 -27 63 -49.5t70 -45.5t154 -95t250 -156q16 -11 16 -29q0 -19 -15 -29l-543 -369q-12 -8 -26 -5t-22 15t-5.5 26t14.5 22l499 339q-485 309 -504 326q-10 10 -10 25z" />
<glyph unicode="?" horiz-adv-x="630" d="M90 704q-3 105 69 172q65 62 155 59q101 -3 173 -78q69 -72 70 -160q3 -105 -61 -165q-70 -66 -161 -65v-211q0 -14 -10.5 -24.5t-24.5 -10.5t-24.5 10.5t-10.5 24.5v223q-1 26 19.5 42.5t50.5 16.5q62 0 105 40q47 44 47 118q-5 66 -50 113q-50 53 -120 55 q-64 1 -109 -40q-49 -47 -46 -118q1 -19 -17 -32q-17 -12 -37 -1q-2 1 -4 3t-4 3q-10 10 -10 25zM247 51q0 23 15 38t38 15q22 0 37 -15t15 -38q0 -22 -15 -37.5t-37 -15.5q-23 0 -38 15.5t-15 37.5z" />
<glyph unicode="@" horiz-adv-x="1114" d="M78 471q0 97 37.5 184.5t101.5 151.5t151.5 101.5t184.5 37.5t184.5 -37.5t151.5 -101.5t101.5 -151.5t37.5 -184.5t-37.5 -185t-101.5 -152t-152 -102t-184 -38t-184 38t-152 102t-101.5 152t-37.5 185zM147 471q0 -169 118.5 -288.5t287.5 -119.5q168 0 286.5 119.5 t118.5 288.5q0 168 -118.5 287t-286.5 119t-287 -119t-119 -287zM311 477q0 78 41 133q29 40 75 63t95 23h2q80 0 138 -43l10 -10q2 -1 2 2q0 33 24 39q4 2 11 2q12 0 23 -11t11 -24v-395q0 -21 -6 -27q-11 -14 -28 -14q-18 0 -27 12q-8 8 -8 39q-63 -53 -142 -53 q-57 0 -104 23q-49 24 -82 69t-33 96q0 13 -1 38t-1 38zM381 475q0 -4 1 -13t1 -24q0 -43 6 -61q12 -36 43 -61t70 -31q4 0 13 -1t13 -1q28 0 58 10q36 14 61 47t25 70q0 13 1 36.5t1 34.5q0 80 -66 123q-36 23 -86 23q-3 0 -10 -1t-10 -1q-40 -6 -71 -33t-42 -64 q-8 -24 -8 -53z" />
<glyph unicode="A" horiz-adv-x="966" d="M16 35q0 4 4 16l439 877q9 18 33 18q21 0 30 -18l412 -877q4 -12 4 -16q0 -25 -20 -35h-15q-24 0 -33 20l-118 254h-541l-127 -254q-11 -20 -35 -20h-12q-21 10 -21 35zM246 344h473l-230 487z" />
<glyph unicode="B" horiz-adv-x="954" d="M106 0v35v878v33h35h445q104 0 178 -64.5t74 -158.5v-53q0 -59 -32 -110.5t-87 -82.5q60 -31 95.5 -83.5t35.5 -114.5v-54q0 -94 -74 -159.5t-176 -65.5h-459h-35zM174 70h426q76 0 129 46t53 109v54q0 61 -58 112t-134 51h-416v-372zM174 510h416q74 0 126 48.5 t52 111.5v53q0 64 -52.5 110t-129.5 46h-412v-369z" />
<glyph unicode="C" horiz-adv-x="1038" d="M76 473q0 175 121 311q71 81 171 121.5t210 40.5q172 0 307 -117q18 -14 49 -49q8 -8 8 -22q0 -9 -2 -13q-6 -18 -29 -22q-22 -3 -34 12q-20 23 -43 43q-117 99 -271 99q-87 0 -167.5 -35.5t-141.5 -102.5q-102 -114 -102 -266q0 -87 36 -166.5t105 -138.5 q116 -98 270 -98q88 0 169 35.5t140 101.5q12 12 29 12t25 -8q14 -10 14 -27q0 -12 -10 -22q-69 -79 -165.5 -120.5t-201.5 -41.5q-186 0 -321 117q-80 68 -123 162t-43 194z" />
<glyph unicode="D" horiz-adv-x="966" d="M104 0v946h285q204 0 349 -135.5t145 -331.5q0 -130 -66.5 -240.5t-180 -174.5t-247.5 -64h-285zM172 463q0 -87 0.5 -177.5t1 -149t0.5 -66.5h215q177 0 300.5 119.5t123.5 289.5t-122.5 285t-301.5 115h-217v-15v-104v-297z" />
<glyph unicode="E" horiz-adv-x="790" d="M106 0v35v428v12v438v33h35h539q21 0 29 -16q6 -6 6 -17q0 -9 -6 -18q-10 -16 -29 -16h-504v-375h301q21 0 31 -17q9 -19 0 -34q-10 -19 -31 -19h-301v-364h504q20 0 29 -19q6 -6 6 -16t-6 -19q-10 -16 -29 -16h-539h-35z" />
<glyph unicode="F" horiz-adv-x="784" d="M104 51v912h41h529q21 0 31 -17q4 -12 4 -18q0 -9 -4 -17q-11 -18 -31 -18h-500v-369h309q21 0 31 -16q10 -19 0 -35q-9 -18 -31 -18h-309v-258v-146q0 -20 -22 -31q-4 -4 -17 -4q-12 0 -18 4q-13 8 -13 31z" />
<glyph unicode="G" horiz-adv-x="1089" d="M76 516q0 122 67 224.5t175 159t231 56.5h24q174 0 314 -153q14 -17 8 -35q-7 -22 -27 -25q-21 -3 -34 13q-115 131 -265 131q-110 0 -206.5 -46.5t-157 -133.5t-60.5 -195q0 -112 46 -210t131.5 -159t191.5 -61q158 0 276.5 93t141.5 243h-389q-18 0 -31 22q-9 18 0 37 q10 12 31 12h430q12 0 24 -12q11 -8 11 -26q0 -126 -71.5 -228.5t-185 -157.5t-241.5 -55q-94 0 -176 42.5t-138 113t-88 162t-32 188.5z" />
<glyph unicode="H" horiz-adv-x="989" d="M106 45v877q0 14 10 24t25 10t25 -10q12 -12 12 -24v-404h641v404q0 20 19 30q8 5 17 5l17 -5q19 -11 19 -30v-877q0 -20 -19 -31q-6 -4 -18 -4t-16 4q-19 10 -19 31v404h-641v-404q0 -20 -18 -31q-6 -4 -19 -4q-12 0 -18 4q-17 10 -17 31z" />
<glyph unicode="I" horiz-adv-x="405" d="M61 33q0 3 5 18q10 17 30 17h64v806h-64q-20 0 -30 19q-5 10 -5 16q0 4 5 19q11 18 30 18h197q20 0 31 -18q6 -9 6 -19t-6 -16q-10 -19 -31 -19h-64v-806h64q21 0 31 -17q6 -9 6 -18q0 -10 -6 -19q-8 -14 -31 -14h-197q-22 0 -30 14q-5 15 -5 19z" />
<glyph unicode="J" horiz-adv-x="974" d="M45 205q0 24 23 31q8 4 14 4q20 0 31 -21q33 -74 97.5 -119t143.5 -45q110 0 189.5 82.5t79.5 198.5v526h-166q-21 0 -31 19q-14 17 0 34q11 19 31 19h407q20 0 31 -19q4 -12 4 -18q0 -8 -4 -16q-9 -19 -31 -19h-172v-526q0 -145 -99 -247.5t-239 -102.5 q-100 0 -182.5 56t-122.5 148q-4 8 -4 15z" />
<glyph unicode="K" horiz-adv-x="866" d="M111 37v389q-2 4 -1.5 6t1.5 4v463q0 15 9.5 27t22.5 12t25 -12q10 -10 10 -27v-397l113 86q11 22 31 22l413 318q17 13 35 4q6 -2 13.5 -10.5t7.5 -20.5q0 -19 -13 -29l-401 -305l405 -491q9 -9 9 -23q0 -6 -3 -12q-8 -20 -26 -23q-19 -3 -33 15l-407 491l-144 -108 v-379q0 -21 -16 -31q-9 -6 -17 -6q-9 0 -18 6q-16 10 -16 31z" />
<glyph unicode="L" horiz-adv-x="770" d="M106 0v37v860q0 19 12.5 27t22.5 8q17 0 25 -10q10 -10 10 -25v-825h537q19 0 30 -19q5 -10 5 -16q0 -4 -5 -19q-11 -18 -30 -18h-572h-35z" />
<glyph unicode="M" horiz-adv-x="1157" d="M106 35v864q0 10 8 24.5t27 14.5t31 -25l410 -802l409 802q13 25 31 25q16 0 25.5 -11.5t9.5 -27.5v-864q0 -21 -17 -31q-12 -4 -18 -4q-8 0 -16 4q-19 10 -19 31v719l-375 -736q-11 -18 -30 -18q-20 0 -31 18l-377 736v-719q0 -21 -16 -31q-12 -4 -17 -4q-6 0 -18 4 q-17 10 -17 31z" />
<glyph unicode="N" horiz-adv-x="960" d="M106 35v862q0 25 23 33q25 11 39 -10l623 -787v764q0 15 9.5 26t24.5 11t25 -10q10 -13 10 -27v-862q0 -11 -7 -21.5t-17 -13.5q-5 -2 -10 -2q-15 0 -29 14l-621 787v-764q0 -13 -11 -24t-24 -11t-24 11t-11 24z" />
<glyph unicode="O" horiz-adv-x="1114" d="M78 471q0 97 37.5 184.5t101.5 151.5t151.5 101.5t184.5 37.5t184.5 -37.5t151.5 -101.5t101.5 -151.5t37.5 -184.5t-37.5 -185t-101.5 -152t-152 -102t-184 -38t-184 38t-152 102t-101.5 152t-37.5 185zM147 471q0 -169 118.5 -288.5t287.5 -119.5q168 0 286.5 119.5 t118.5 288.5q0 168 -118.5 287t-286.5 119t-287 -119t-119 -287z" />
<glyph unicode="P" horiz-adv-x="880" d="M104 938h457q115 0 196 -75t81 -183q0 -107 -81.5 -183.5t-195.5 -76.5h-385v-393q0 -15 -10 -25t-25 -10q-14 0 -24.5 10t-10.5 25v858zM176 492h385q87 0 147 55t60 133q0 79 -60 134.5t-147 55.5h-385v-378z" />
<glyph unicode="Q" horiz-adv-x="1114" d="M76 473q0 128 63.5 237t172.5 172.5t237 63.5q196 0 335.5 -139t139.5 -334q0 -188 -129 -323l106 -99q16 -13 13 -33q-7 -20 -25 -26h-10q-14 0 -25 8l-110 100q-127 -100 -295 -100q-195 0 -334 138.5t-139 334.5zM145 473q0 -169 118.5 -287t285.5 -118q134 0 244 79 l-62 58q-15 12 -12 33q3 19 24 26q19 6 33 -8l70 -61q108 118 108 278q0 167 -118 285.5t-287 118.5q-167 0 -285.5 -118.5t-118.5 -285.5z" />
<glyph unicode="R" horiz-adv-x="901" d="M104 938h453q115 0 196 -75t81 -183q0 -107 -81.5 -183.5t-195.5 -76.5h-22l237 -365q10 -16 2 -35q-10 -20 -31 -20q-19 0 -30 18l-260 402h-275v-389q0 -21 -20 -31q-4 -4 -17 -4q-12 0 -18 4q-17 10 -17 31zM182 492h375q87 0 147 55t60 133q0 79 -60 134.5t-147 55.5 h-375v-378z" />
<glyph unicode="S" horiz-adv-x="843" d="M74 164q0 6 2 8q3 20 24 27q21 3 35 -11q91 -91 207 -114q35 -6 70 -6q106 0 188 61q54 43 68 82q8 28 8 47q0 24 -8 55q-3 17 -15 32.5t-24 24.5t-37 25q-34 19 -113 43q-7 2 -53.5 14.5t-77.5 22.5q-87 30 -135 92q-49 68 -49 144q0 100 82 161q79 60 194 60 q133 0 242 -80q14 -8 14 -29q0 -11 -6 -20q-11 -15 -28 -15q-10 0 -21 7q-88 63 -199 63q-100 0 -153 -43q-53 -39 -53 -106q0 -56 34 -99q30 -43 101 -67q29 -10 80 -23l51 -14q87 -28 125 -49q46 -27 74 -55.5t36 -73.5q8 -36 8 -70q0 -38 -12 -72q-19 -57 -90 -112 q-99 -74 -231 -74q-55 0 -84 6q-137 26 -242 131q-12 12 -12 27z" />
<glyph unicode="T" horiz-adv-x="804" d="M-39 903q0 7 4 19q13 16 33 16h342h4h6h342q21 0 31 -16q6 -9 6 -19q0 -9 -6 -18q-10 -17 -31 -17h-311v-837q0 -13 -11 -22t-26 -9q-14 0 -24.5 9t-10.5 22v837h-311q-19 0 -33 17q-4 12 -4 18z" />
<glyph unicode="U" horiz-adv-x="954" d="M113 354v551q0 13 11 23t26 10t26 -8q12 -12 12 -25v-551q0 -117 83.5 -196.5t207.5 -79.5q126 0 209.5 79.5t83.5 196.5v551q0 13 11 23t26 10q17 0 28 -9.5t11 -23.5v-551q0 -147 -106.5 -250.5t-262.5 -103.5q-154 0 -260 103.5t-106 250.5z" />
<glyph unicode="V" horiz-adv-x="806" d="M6 889v14q0 10 6 19q10 16 29 16q13 0 22 -8t11 -15l293 -770l297 770q8 20 26 23h4q16 0 27 -14q10 -10 10 -21q0 -3 -1 -7.5t-1 -6.5l-330 -862q-11 -21 -30 -21q-28 0 -35 21z" />
<glyph unicode="W" horiz-adv-x="1456" d="M6 885v14q0 10 6 19q10 14 29 14q27 0 35 -23l291 -770l295 770q7 23 30 23q25 0 35 -23l291 -768l293 768q6 19 28 23h5q13 0 26 -12q12 -9 12 -23q0 -4 -4 -12l-327 -860q-11 -25 -33 -25q-24 0 -35 23l-291 770l-295 -768q-7 -25 -30 -25t-35 23z" />
<glyph unicode="X" horiz-adv-x="843" d="M43 33q0 15 8 20l334 449l-276 379q-14 18 -5 37q12 20 31 20q15 0 27 -16l266 -365l274 365q12 16 27 16q6 0 21 -10q12 -9 12 -27q0 -11 -6 -20l-287 -379l326 -449q6 -9 6 -20q0 -9 -2 -13q-5 -16 -27 -20h-4q-21 0 -29 14l-313 432l-322 -434q-9 -12 -28 -12h-4 q-22 4 -27 20q-2 4 -2 13z" />
<glyph unicode="Y" horiz-adv-x="798" d="M-39 899q0 6 4 14q9 19 31 19q16 0 29 -10l319 -406l318 406q13 10 30 10q12 0 21 -6q12 -12 12 -27q0 -9 -4 -25l-340 -430v-409q0 -19 -19 -29q-9 -6 -18 -6q-11 0 -20 6q-19 11 -19 29v409l-338 433q-6 9 -6 22z" />
<glyph unicode="Z" horiz-adv-x="776" d="M55 39q0 14 2 20l504 807h-455q-18 0 -28 17q-10 19 0 39t28 20h519q21 0 28 -22q-9 -7 -8.5 -17.5t10.5 -17.5l-501 -807h567q13 0 23 -12t10 -27t-10 -27t-23 -12h-633q-19 0 -29 20q-4 6 -4 19z" />
<glyph unicode="[" horiz-adv-x="444" d="M82 -434v1335q0 15 10 25t25 10h211q14 0 24 -10.5t10 -24.5t-10 -24.5t-24 -10.5h-176v-1265h176q14 0 24 -10.5t10 -24.5t-10 -24.5t-24 -10.5h-211q-15 0 -25 10t-10 25z" />
<glyph unicode="\" horiz-adv-x="720" d="M109 923.5q5 13.5 18 19.5t26.5 1t19.5 -18l411 -878q6 -13 1.5 -27t-17.5 -20t-27 -1t-20 18l-411 879q-6 13 -1 26.5z" />
<glyph unicode="]" horiz-adv-x="444" d="M55 -434q0 14 10 24.5t24 10.5h177v1265h-177q-14 0 -24 10.5t-10 24.5t10 24.5t24 10.5h211q15 0 25 -10t10 -25v-1335q0 -15 -10 -25t-25 -10h-211q-14 0 -24 10.5t-10 24.5z" />
<glyph unicode="^" horiz-adv-x="587" d="M86 729q25 20 105 103.5t105 103.5q18 14 35 0q25 -20 105 -103.5t105 -103.5q14 -12 -9 -39q-7 -9 -23.5 -10.5t-25.5 6.5l-170 174l-169 -174q-9 -8 -27 -6.5t-25 10.5q-22 26 -6 39z" />
<glyph unicode="_" d="M-41 -528q0 14 10.5 24t24.5 10h766q14 0 24.5 -10t10.5 -24t-10.5 -24.5t-24.5 -10.5h-766q-14 0 -24.5 10.5t-10.5 24.5z" />
<glyph unicode="`" horiz-adv-x="481" d="M79 791.5q-2 14.5 7 25.5t23.5 13t25.5 -7l240 -184q11 -9 13 -23.5t-7 -25.5t-23.5 -13.5t-25.5 6.5l-240 185q-11 9 -13 23.5z" />
<glyph unicode="a" horiz-adv-x="573" d="M70 264q0 78 41 133q29 40 75 63t95 23h2q79 0 137 -43l10 -10q2 -1 2 2q0 13 7 24.5t18 14.5q4 2 10 2q12 0 23.5 -11t11.5 -24v-395q0 -21 -6 -27q-11 -14 -29 -14t-27 12q-8 8 -8 39q-63 -53 -141 -53q-58 0 -105 23q-49 24 -81.5 69t-32.5 96q0 12 -1 38t-1 38z M139 262q0 -4 1 -13t1 -24q0 -43 6 -61q12 -36 43 -61t70 -31q4 0 13.5 -1t13.5 -1q27 0 57 10q36 14 61 47t25 70q0 13 1 36.5t1 34.5q0 80 -65 123q-36 23 -86 23q-3 0 -10.5 -1t-10.5 -1q-40 -6 -71 -33t-42 -64q-8 -24 -8 -53z" />
<glyph unicode="b" horiz-adv-x="632" d="M106 39v866q0 13 10 23t23 10h2q19 0 25 -8q10 -10 10 -25v-502q63 66 152 66q92 0 156.5 -68.5t64.5 -164.5q0 -97 -64.5 -166.5t-156.5 -69.5q-89 0 -152 66v-27q0 -21 -16 -31q-18 -9 -37 0q-17 10 -17 31zM180 236q0 -67 44 -114.5t104 -47.5q62 0 105.5 47.5 t43.5 114.5q0 66 -43.5 112.5t-105.5 46.5q-61 0 -104.5 -46.5t-43.5 -112.5z" />
<glyph unicode="c" horiz-adv-x="534" d="M68 240q0 98 59 163q68 78 158 78q99 0 164 -65l8 -8q15 -15 8 -35q-7 -22 -25 -25q-21 -7 -34 10l-7 7q-45 45 -106 45q-64 0 -115 -54q-41 -50 -41 -116q0 -74 49 -123q45 -45 107 -45q68 0 115 53q12 16 34 12q20 -3 27 -24q0 -2 1 -5.5t1 -5.5q0 -14 -10 -24 q-69 -78 -168 -78q-91 0 -154 63q-71 71 -71 177z" />
<glyph unicode="d" horiz-adv-x="606" d="M74 250q0 71 16 106q25 57 78 92t113 35q94 0 153 -53v483q0 15 10 26t25 11q14 0 24.5 -9t10.5 -21v-789v-100q0 -13 -10.5 -21t-24.5 -8q-11 0 -20 6q-15 11 -15 43q-3 0 -15 -9t-18 -11q-48 -31 -131 -31q-60 0 -112 40.5t-74 100.5q-10 31 -10 109zM143 225 q0 -39 9 -59q12 -42 51 -69t84 -27q42 0 79 21.5t54 58.5q14 27 14 81q0 33 -0.5 47t-6 37t-17.5 39q-42 60 -125 60q-31 0 -60 -13q-43 -21 -62.5 -61.5t-19.5 -114.5z" />
<glyph unicode="e" horiz-adv-x="577" d="M68 244q0 82 45 147q31 46 75 72t91 26h8q75 0 133 -49q47 -39 72 -102q2 -4 2 -12h2q0 -3 1 -8.5t1 -8.5q0 -5 -1 -19.5t-1 -25.5h-359q0 -104 60 -158q40 -32 92 -32q75 0 121 67q10 17 30 17q18 0 29 -23q7 -20 -4 -37q-32 -47 -79 -72.5t-99 -25.5q-73 0 -131 49 q-42 35 -65 87t-23 108zM154 326h268q-12 27 -43 55q-41 35 -94 35q-70 0 -119 -68q-2 -4 -6 -11t-6 -11z" />
<glyph unicode="f" horiz-adv-x="579" d="M55 465q0 9 6 18q10 17 31 17h82v254q0 75 53.5 129.5t126.5 54.5q74 0 127.5 -54.5t53.5 -129.5q0 -22 -19 -31q-18 -11 -35 0q-18 11 -18 31q0 46 -31.5 78t-77.5 32t-77 -32t-31 -78v-254h88q17 0 31 -17q9 -19 0 -34q-13 -19 -31 -19h-88v-395q0 -21 -19 -31 q-12 -4 -16 -4q-6 0 -18 4q-19 10 -19 31v395h-82q-22 0 -31 19q-6 6 -6 16z" />
<glyph unicode="g" horiz-adv-x="581" d="M70 248q0 53 16 95.5t39 67t53 40.5t55.5 22t47.5 6q90 0 151 -55q0 19 7.5 30t13.5 13t12 2q14 0 25.5 -11t11.5 -24v-680q0 -105 -65 -164t-152 -59q-80 0 -141.5 52t-71.5 128q0 4 -1 13.5t-1 13.5q0 17 9 28t25 11q14 0 24.5 -8t10.5 -21q0 -68 44.5 -107.5 t103.5 -39.5q57 0 101 39.5t44 93.5v313q-7 -2 -17 -10t-21 -16t-44.5 -14.5t-85.5 -6.5q-60 0 -110.5 38.5t-71.5 96.5q-12 37 -12 113zM139 221q0 -46 16 -78.5t40.5 -48t46.5 -22t43 -6.5q42 0 79 21t54 58q14 27 14 83v14q0 91 -43 128.5t-108 37.5q-25 0 -47 -7 t-45 -25.5t-36.5 -58t-13.5 -96.5z" />
<glyph unicode="h" horiz-adv-x="573" d="M104 35v231v41v582q0 20 19 31q9 6 18 6q11 0 17 -6q18 -9 18 -31v-473q57 47 127 47q90 0 162 -86q35 -42 35 -111v-231q0 -21 -19 -31q-8 -4 -16 -4q-7 0 -19 4q-18 11 -18 31v231q0 52 -36 88.5t-89 36.5q-54 0 -90.5 -36t-36.5 -89v-231q0 -22 -18 -31q-8 -4 -17 -4 q-6 0 -18 4q-19 11 -19 31z" />
<glyph unicode="i" horiz-adv-x="286" d="M88 715q0 22 15 36.5t38 14.5q22 0 37 -14.5t15 -36.5q0 -23 -15 -38t-37 -15q-23 0 -38 15t-15 38zM104 35v405q0 14 11 24.5t24 10.5q14 0 27 -10q10 -10 10 -25v-405q0 -22 -18 -31q-8 -4 -17 -4q-6 0 -18 4q-19 11 -19 31z" />
<glyph unicode="j" horiz-adv-x="507" d="M-39 -260q0 21 16 31q19 9 37 0q17 -10 17 -31q0 -59 41 -99t104 -40t104.5 40t41.5 99v690q0 14 9.5 23.5t22.5 9.5h6q15 0 21 -6q10 -10 10 -27v-690q0 -88 -62.5 -149.5t-152.5 -61.5t-152.5 61.5t-62.5 149.5zM303 717q0 22 14.5 37.5t36.5 15.5h2q22 0 38 -15 t16 -38q0 -21 -16 -36t-38 -15t-37.5 14.5t-15.5 36.5z" />
<glyph unicode="k" horiz-adv-x="555" d="M104 35v866q0 15 10 26t25 11t25 -10q10 -13 10 -27v-622l240 178q9 6 18 6q17 0 31 -17q6 -9 6 -20q0 -18 -14 -29l-166 -121l207 -217q10 -7 10 -24v-10q-7 -22 -27 -25h-6q-18 0 -27 12l-213 224l-59 -43v-158q0 -18 -16 -31q-9 -4 -18.5 -4t-18.5 4q-17 14 -17 31z " />
<glyph unicode="l" horiz-adv-x="276" d="M106 35v866q0 15 10 26t25 11t25 -10t10 -27v-866q0 -21 -16 -31q-12 -4 -19 -4q-8 0 -16 4q-19 10 -19 31z" />
<glyph unicode="m" horiz-adv-x="854" d="M68 35v231v41v117q0 23 16 33q9 6 18 6q10 0 19 -6q16 -10 16 -33v-8q57 47 127 47q50 0 92.5 -23.5t69.5 -62.5q27 39 69.5 62.5t92.5 23.5q82 0 139 -57.5t57 -139.5v-231q0 -21 -16 -31q-12 -4 -18 -4q-7 0 -19 4q-16 10 -16 31v231q0 53 -36.5 89t-90.5 36t-90.5 -36 t-36.5 -89v-231q0 -21 -17 -31q-12 -4 -18 -4t-18 4q-17 10 -17 31v231q0 53 -36.5 89t-90.5 36t-90.5 -36t-36.5 -89v-231q0 -21 -16 -31q-12 -4 -19 -4q-6 0 -18 4q-16 10 -16 31z" />
<glyph unicode="n" horiz-adv-x="532" d="M68 35v231v41v117q0 23 16 33q9 6 18 6q10 0 19 -6q16 -10 16 -33v-8q57 47 127 47q90 0 162 -86q35 -42 35 -111v-231q0 -21 -17 -31q-12 -4 -18 -4t-18 4q-17 10 -17 31v231q0 52 -37 88.5t-90 36.5q-54 0 -90.5 -36t-36.5 -89v-231q0 -21 -16 -31q-12 -4 -19 -4 q-6 0 -18 4q-16 10 -16 31z" />
<glyph unicode="o" horiz-adv-x="585" d="M63 231q0 96 65 164t157 68q91 0 156 -68.5t65 -163.5v-2q0 -95 -65 -162t-156 -67q-92 0 -157 68t-65 163zM137 231q0 -64 43 -109.5t105 -45.5q60 0 103.5 45.5t43.5 109.5q0 65 -43 110.5t-104 45.5q-62 0 -105 -45t-43 -111z" />
<glyph unicode="p" horiz-adv-x="591" d="M72 426q0 15 9.5 26t22.5 11h2q15 0 25 -10t10 -27v-35q63 66 152 66q91 0 155 -70t64 -168v-2q0 -97 -64 -166t-155 -69q-88 0 -152 67v-487q0 -21 -18 -33q-8 -4 -17 -4q-6 0 -18 4q-16 13 -16 33v864zM147 219q0 -66 43 -113t103 -47t103.5 47t43.5 113 q0 67 -43.5 114.5t-103.5 47.5h-2q-60 0 -102 -47.5t-42 -114.5z" />
<glyph unicode="q" horiz-adv-x="579" d="M70 223q0 72 20 113q25 54 78 87.5t113 33.5q91 0 151 -54q0 29 17 39q12 4 16 4q14 0 25.5 -9.5t11.5 -22.5v-842q0 -34 -19 -43q-8 -4 -16 -4q-14 0 -24.5 10t-10.5 23v469q-4 -3 -16 -13.5t-19 -13.5q-41 -25 -135 -25q-60 0 -110.5 41t-69.5 101q-12 32 -12 106z M139 199q0 -33 8 -60q13 -42 52 -68t86 -26q43 0 80.5 22t54.5 60q12 28 12 76q0 33 -1 49.5t-7.5 39.5t-20.5 40q-40 55 -122 55q-35 0 -60 -14q-42 -19 -62 -59t-20 -115z" />
<glyph unicode="r" horiz-adv-x="493" d="M68 35v397q0 15 9.5 26t24.5 11t27 -12q10 -10 10 -25v-8q55 45 127 45q50 0 93.5 -22.5t70.5 -59.5q6 -9 6 -18q0 -20 -12 -29q-9 -6 -21 -6q-19 0 -28 12q-15 22 -46 37.5t-63 15.5q-53 0 -90 -31t-37 -75v-258q0 -22 -18 -31q-12 -4 -19 -4q-4 0 -16 4q-18 9 -18 31z " />
<glyph unicode="s" horiz-adv-x="516" d="M57 90q0 25 23 33q18 9 35 -4q20 -17 71 -33t86 -16q44 0 68 18q27 15 27 51q0 13 -9 25q-6 8 -30 22q-19 8 -97 33q-60 15 -94 39q-57 33 -57 96q0 31 16.5 57t42.5 40q41 24 103 24q32 0 62 -10.5t48 -21.5t51 -35q15 -9 15 -29q0 -12 -6 -21q-14 -14 -29 -14 q-12 0 -21 6q-55 40 -75 47q-19 6 -45 6q-42 0 -70 -14q-22 -14 -22 -35q0 -24 24 -37q20 -13 78 -32q80 -24 106 -37q36 -16 54 -39q26 -33 26 -70q0 -35 -16.5 -64.5t-42.5 -45.5q-44 -29 -107 -29q-52 0 -107.5 16.5t-92.5 46.5q-15 9 -15 27z" />
<glyph unicode="t" horiz-adv-x="391" d="M29 455q0 12 4 16q9 18 30 18h93v173q0 15 10 25.5t24 10.5q15 0 25 -10q10 -8 10 -26v-173h94q22 0 31 -18q6 -6 6 -16t-6 -19q-11 -18 -31 -18h-94v-383q0 -21 -16 -31q-12 -4 -19 -4q-8 0 -16 4q-18 9 -18 31v383h-93q-19 0 -30 18q-4 6 -4 19z" />
<glyph unicode="u" horiz-adv-x="540" d="M74 197v229q0 22 18 31q6 6 17 6q9 0 18 -6q18 -11 18 -31v-229q0 -53 36.5 -90t88.5 -37q54 0 90.5 37t36.5 90v229q0 22 19 31q6 6 16 6t19 -6q18 -11 18 -31v-229v-41v-119q0 -20 -18 -31q-17 -10 -35 0q-19 10 -19 31v10q-57 -47 -127 -47q-88 0 -161 84 q-35 49 -35 113z" />
<glyph unicode="v" horiz-adv-x="489" d="M33 434q0 10 6 19q10 16 29 16q22 0 32 -23l142 -323l143 323q8 23 35 23q19 0 26 -12q7 -10 7 -21q0 -8 -4 -16l-175 -400q-10 -20 -32 -20q-24 0 -31 20l-174 400q-4 8 -4 14z" />
<glyph unicode="w" horiz-adv-x="821" d="M33 434q0 10 6 19q10 16 29 16q25 0 32 -23l142 -321l135 321q3 9 13 16t20 7q22 0 30 -23l135 -321l142 321q10 23 33 23q2 0 14 -4q20 -10 20 -33q0 -4 -4 -12l-174 -400q-7 -20 -33 -20q-23 0 -30 23l-133 319l-134 -319q-10 -23 -32 -23q-23 0 -33 20l-174 400 q-4 8 -4 14z" />
<glyph unicode="x" horiz-adv-x="507" d="M23 35q0 14 10 24l180 209l-115 148q-14 17 -4 37t33 20q16 0 29 -16l102 -133l117 133q13 16 28 16q13 0 22 -8.5t11 -15.5q7 -20 -8 -35l-125 -148l160 -209q8 -8 8 -20q0 -21 -14 -29q-12 -8 -21 -8q-14 0 -28 14l-152 197l-170 -199q-9 -12 -29 -12q-19 0 -32 25 q0 1 -1 4.5t-1 5.5z" />
<glyph unicode="y" horiz-adv-x="538" d="M29 -440q0 4 4 16l194 424l-190 416q-2 4 -2 14q0 24 20 33q4 2 15 2q21 0 30 -21l166 -362l168 367q10 20 33 20q19 0 29 -16q6 -9 6 -19q0 -6 -4 -14l-402 -873q-6 -22 -30 -22q-18 0 -29 14q-8 12 -8 21z" />
<glyph unicode="z" horiz-adv-x="464" d="M35 35q0 11 6 20l264 355h-199q-17 0 -30 16q-9 18 0 37q13 16 30 16h271q20 0 31 -22q9 -15 -5 -33l-264 -354h250q21 0 31 -17q4 -12 4 -18q0 -7 -4 -19q-10 -16 -31 -16h-319q-22 0 -33 18q-2 6 -2 17z" />
<glyph unicode="{" horiz-adv-x="425" d="M98 225q-2 24 21 34q27 13 37.5 18.5t26 21t20.5 36.5t9.5 57t4.5 90q1 72 -23 174.5t-26 168.5q0 5 0.5 11t0.5 7q7 67 71 87q24 7 53 7q14 0 24.5 -10.5t10.5 -24.5t-10.5 -24.5t-24.5 -10.5q-21 0 -33 -4q-19 -5 -22 -28v-10q1 -36 25.5 -155t23.5 -188 q-1 -117 -19.5 -171.5t-60.5 -83.5q82 -65 80 -230q-1 -75 -24 -198.5t-23 -164.5q0 -13 2 -21q4 -22 26 -26q6 -2 19 -2q14 0 24.5 -10t10.5 -24t-10.5 -24.5t-24.5 -10.5q-11 0 -32 3q-67 12 -81 80q-4 19 -4 35q0 42 23 176t24 187q0 37 -2.5 64t-12 55.5t-29 48 t-50.5 29.5q-23 8 -25 31z" />
<glyph unicode="|" horiz-adv-x="241" d="M70 -442v1347q0 14 10 24.5t24 10.5t24.5 -10.5t10.5 -24.5v-1347q0 -14 -10.5 -24.5t-24.5 -10.5t-24 10.5t-10 24.5z" />
<glyph unicode="}" horiz-adv-x="425" d="M98 902q0 17 14 26.5t36 9.5q40 0 75 -29t35 -80q0 -59 -24.5 -166t-24.5 -177q0 -35 1 -62t5.5 -48.5t6 -35.5t11 -26.5t12.5 -18t18 -14.5t19 -10.5t25 -11.5t21 -31q0 -27 -25 -34q-55 -18 -74.5 -65.5t-19.5 -120.5q0 -59 23.5 -193.5t23.5 -178.5q0 -66 -33.5 -93 t-83.5 -27q-14 0 -24.5 10.5t-10.5 24.5t10.5 24t24.5 10q27 0 37 11t10 38v1q0 40 -23.5 167.5t-23.5 204.5q0 156 80 220q-42 29 -61 85.5t-19 172.5q0 75 24.5 191.5t24.5 142.5q0 38 -22 44q-6 2 -27 3.5t-31 9t-10 26.5z" />
<glyph unicode="~" horiz-adv-x="819" d="M37.5 301.5q-1.5 14.5 7.5 25.5q112 135 180 135h5q63 -4 109 -27.5t71 -53.5t45.5 -59.5t46.5 -49t61 -18.5q24 0 45.5 16t53.5 54.5t43 49.5q10 10 24 10t25 -10q10 -10 10.5 -24.5t-9.5 -24.5q-20 -20 -51 -55.5t-44.5 -48t-39 -24.5t-57.5 -13q-49 -1 -84 19 t-56.5 49.5t-43.5 60t-60 53.5t-91 27h-3q-8 0 -17.5 -4t-19.5 -12t-19 -15.5t-20 -20t-18 -20.5t-17.5 -21t-14.5 -18q-9 -11 -23.5 -12t-25.5 8t-12.5 23.5z" />
<glyph unicode="&#xa1;" horiz-adv-x="274" d="M74 879q0 22 14.5 37.5t36.5 15.5q23 0 38 -15.5t15 -37.5q0 -23 -15 -38.5t-38 -15.5q-22 0 -36.5 15.5t-14.5 38.5zM90 33v641q0 14 10.5 24.5t24.5 10.5t24.5 -10.5t10.5 -24.5v-641q0 -14 -10.5 -24.5t-24.5 -10.5t-24.5 10.5t-10.5 24.5z" />
<glyph unicode="&#xa2;" horiz-adv-x="534" d="M68 240q0 98 59 163q56 65 131 76v72q0 14 10.5 24.5t24.5 10.5t24.5 -10.5t10.5 -24.5v-73q72 -13 121 -62l8 -8q15 -15 8 -35q-7 -22 -25 -25q-21 -7 -34 10l-7 7q-32 32 -71 41v-330q46 11 80 49q12 16 34 12q20 -3 27 -24q0 -2 1 -5.5t1 -5.5q0 -14 -10 -24 q-56 -62 -133 -75v-83q0 -14 -10.5 -24.5t-24.5 -10.5t-24.5 10.5t-10.5 24.5v83q-70 11 -119 60q-71 71 -71 177zM137 240q0 -74 49 -123q32 -32 72 -41v329q-45 -11 -80 -49q-41 -50 -41 -116z" />
<glyph unicode="&#xa3;" horiz-adv-x="1089" d="M110 187q0 56 24 99q35 65 97 86t159 21q6 0 16 -2l-54 88h-171q-14 0 -24.5 10.5t-10.5 24.5t10.5 24.5t24.5 10.5h133q-34 71 -34 121q0 91 26 166t83 102q17 8 38 8q156 0 220.5 -49.5t64.5 -140.5q0 -35 -8 -77q-3 -14 -15.5 -22t-26.5 -5t-22 15t-5 26q8 48 8 63 q0 62 -46 91.5t-170 29.5q-2 0 -8 -3q-35 -17 -52 -75t-17 -129q0 -40 43 -121h359q14 0 24.5 -10.5t10.5 -24.5t-10.5 -24.5t-24.5 -10.5h-319q59 -98 80 -137q32 -26 76.5 -78.5t77.5 -90.5t86 -68.5t112 -30.5q14 0 24.5 -10.5t10.5 -24.5q0 -15 -10.5 -27t-24.5 -12 q-34 0 -64.5 7t-61.5 26t-50 31.5t-50.5 44.5t-41.5 42.5t-42 47.5q0 -92 -49.5 -145.5t-155.5 -53.5q-240 0 -240 187zM180 187q0 -24 4.5 -40t20 -35.5t52.5 -30t94 -10.5q37 0 63 9.5t39.5 23t21 35t9 38t1.5 40.5q0 31 -22 75q-39 31 -73 31q-75 0 -123 -13t-70 -54 q-17 -30 -17 -69z" />
<glyph unicode="&#xa4;" horiz-adv-x="585" d="M63 231q0 96 65 164t157 68q91 0 156 -68.5t65 -163.5v-2q0 -95 -65 -162t-156 -67q-92 0 -157 68t-65 163zM137 231q0 -64 43 -109.5t105 -45.5q60 0 103.5 45.5t43.5 109.5q0 65 -43 110.5t-104 45.5q-62 0 -105 -45t-43 -111z" />
<glyph unicode="&#xa5;" horiz-adv-x="798" d="M-39 899q0 6 4 14q9 19 31 19q16 0 29 -10l319 -406l318 406q13 10 30 10q12 0 21 -6q12 -12 12 -27q0 -9 -4 -25l-304 -385h193q14 0 24.5 -10t10.5 -24t-10.5 -24.5t-24.5 -10.5h-229v-78h229q14 0 24.5 -10.5t10.5 -24.5t-10.5 -24.5t-24.5 -10.5h-229v-237 q0 -19 -19 -29q-9 -6 -18 -6q-11 0 -20 6q-19 11 -19 29v237h-213q-14 0 -24.5 10.5t-10.5 24.5t10.5 24.5t24.5 10.5h213v78h-213q-14 0 -24.5 10.5t-10.5 24.5t10.5 24t24.5 10h178l-303 388q-6 9 -6 22z" />
<glyph unicode="&#xa6;" horiz-adv-x="352" d="M147 100q0 14 10.5 24.5t24.5 10.5t24.5 -10.5t10.5 -24.5v-497q0 -14 -10.5 -24.5t-24.5 -10.5t-24.5 10.5t-10.5 24.5v497zM147 385v498q0 14 10.5 24.5t24.5 10.5t24.5 -10.5t10.5 -24.5v-498q0 -14 -10.5 -24.5t-24.5 -10.5t-24.5 10.5t-10.5 24.5z" />
<glyph unicode="&#xa7;" horiz-adv-x="516" d="M37 213q0 26 22 33q18 9 35 -4q20 -17 71.5 -33t86.5 -16q43 0 67 18q27 15 27 51q0 14 -8 25q-6 7 -31 22q-23 9 -65 23q-93 14 -148 59q-12 8 -14 24q-21 30 -21 62q0 40 101 108v1q-58 34 -58 96q0 63 60 96q43 25 102 25q32 0 62.5 -10.5t48.5 -22t51 -35.5 q14 -8 14 -28q0 -12 -6 -21q-14 -14 -28 -14q-12 0 -21 6q-33 24 -44.5 31.5t-31.5 14.5t-45 7q-41 0 -69 -14q-23 -14 -23 -35q0 -23 25 -37q24 -16 77 -33q83 -24 107 -37q36 -16 53 -38q27 -35 27 -70t-17 -65t-43 -46q-9 -6 -22 -12l12 -12q27 -35 27 -70t-17 -64.5 t-43 -45.5q-44 -29 -106 -29q-52 0 -108 16.5t-93 46.5q-14 8 -14 27zM129 477q0 -23 25 -37q21 -14 77 -32q2 0 6.5 -2t6.5 -2q33 -7 51 -7q42 0 67 19q27 15 27 51q0 14 -8 25q-6 8 -31 22q-22 9 -96 33q-23 8 -40 15q-85 -65 -85 -85zM362 467l35 35q0 -12 -6 -21 q-14 -14 -29 -14z" />
<glyph unicode="&#xa8;" horiz-adv-x="593" d="M135 631q0 23 15 38t38 15q22 0 37 -15t15 -38q0 -22 -15 -37.5t-37 -15.5q-23 0 -38 15.5t-15 37.5zM356 631q0 23 15.5 38t38.5 15q22 0 36.5 -15t14.5 -38q0 -22 -14.5 -37.5t-36.5 -15.5q-23 0 -38.5 15.5t-15.5 37.5z" />
<glyph unicode="&#xa9;" horiz-adv-x="1114" d="M74 250q0 96 41 184.5t107 151.5t152.5 101t174.5 38q97 0 184.5 -37.5t151.5 -101.5t101.5 -151.5t37.5 -184.5t-37.5 -185t-101.5 -152t-152 -102t-184 -38t-184 38t-152 102t-101.5 152t-37.5 185zM143 250q0 -169 118.5 -288.5t287.5 -119.5q168 0 286.5 119.5 t118.5 288.5q0 168 -118.5 286.5t-286.5 118.5q-111 0 -204.5 -54.5t-147.5 -147.5t-54 -203zM336 240q0 98 59 163q68 78 158 78q99 0 164 -65l8 -8q15 -15 8 -35q-7 -22 -24 -25q-21 -7 -35 10l-6 7q-45 45 -107 45q-64 0 -115 -54q-40 -49 -40 -116q0 -74 49 -123 q45 -45 106 -45q68 0 115 53q13 16 35 12q19 -3 26 -24q0 -2 1 -5.5t1 -5.5q0 -14 -10 -24q-69 -78 -168 -78q-90 0 -153 63q-72 72 -72 177z" />
<glyph unicode="&#xaa;" horiz-adv-x="573" d="M70 721q0 78 41 133q29 40 75 63t95 23h2q79 0 137 -43l10 -10q2 -1 2 2q0 13 7 24.5t18 14.5q4 2 10 2q12 0 23.5 -11t11.5 -24v-395q0 -21 -6 -27q-11 -14 -29 -14t-27 12q-8 8 -8 39q-63 -53 -141 -53q-60 0 -105 22q-49 24 -81.5 69.5t-32.5 96.5q0 13 -1 38t-1 38z M80 311q0 14 8.5 24.5t19.5 10.5h399q11 0 19.5 -10.5t8.5 -24.5t-8.5 -24.5t-19.5 -10.5h-399q-11 0 -19.5 10.5t-8.5 24.5zM139 719q0 -4 1 -13t1 -24q0 -43 6 -61q12 -36 43 -61.5t70 -31.5q4 0 13.5 -1t13.5 -1q24 0 57 11q36 14 61 46.5t25 69.5q0 13 1 37t1 35 q0 80 -65 123q-34 22 -86 22q-3 0 -10.5 -1t-10.5 -1q-40 -6 -71.5 -32.5t-41.5 -63.5q-8 -24 -8 -53z" />
<glyph unicode="&#xab;" horiz-adv-x="905" d="M91 344q0 17 14 28l313 231q11 8 26 6t23 -13t6 -26t-13 -23l-275 -202l274 -194q12 -8 14 -22t-6 -26t-22 -14.5t-26 5.5l-314 221q-14 10 -14 29zM474 344q0 17 14 28l313 231q11 8 26 6t23 -13t5.5 -26t-13.5 -23l-274 -202l274 -194q12 -8 14 -22t-6 -26t-22 -14.5 t-26 5.5l-314 221q-14 10 -14 29z" />
<glyph unicode="&#xac;" d="M72 309q0 14 10 24.5t24 10.5h504q15 0 25 -10t10 -25v-153q0 -14 -10.5 -24.5t-24.5 -10.5t-24.5 10.5t-10.5 24.5v118h-469q-14 0 -24 10.5t-10 24.5z" />
<glyph unicode="&#xad;" d="M70 307q0 14 10 24.5t24 10.5h498q14 0 24.5 -10.5t10.5 -24.5t-10.5 -24.5t-24.5 -10.5h-498q-14 0 -24 10.5t-10 24.5z" />
<glyph unicode="&#xae;" horiz-adv-x="1114" d="M74 250q0 96 41 184.5t107 151.5t152.5 101t174.5 38q97 0 184.5 -37.5t151.5 -101.5t101.5 -151.5t37.5 -184.5t-37.5 -185t-101.5 -152t-152 -102t-184 -38t-184 38t-152 102t-101.5 152t-37.5 185zM143 250q0 -169 118.5 -288.5t287.5 -119.5q168 0 286.5 119.5 t118.5 288.5q0 168 -118.5 286.5t-286.5 118.5q-111 0 -204.5 -54.5t-147.5 -147.5t-54 -203zM373 537h233q53 0 92 -43t39 -103q0 -59 -39 -101t-92 -42h-10l132 -201q4 -9 1 -19q-2 -5 -19.5 -12t-23.5 -7q-5 0 -14 18l-140 221h-100v-214q0 -20 -10 -25q-3 -3 -7 -3 q-28 0 -33 3q-8 5 -8 25zM434 306h172q79 0 79 85q0 84 -79 84h-172v-169z" />
<glyph unicode="&#xaf;" d="M70 647q0 14 10 24.5t24 10.5h498q14 0 24.5 -10.5t10.5 -24.5t-10.5 -24.5t-24.5 -10.5h-498q-14 0 -24 10.5t-10 24.5z" />
<glyph unicode="&#xb0;" horiz-adv-x="425" d="M14 739q2 46 18.5 81t38 54t48.5 30.5t45.5 14.5t32.5 3q46 -2 81 -18.5t53.5 -38t30 -48.5t14.5 -45.5t3 -32.5q-2 -46 -18 -81t-38 -53.5t-48.5 -30t-45 -14.5t-32.5 -3q-56 2 -96 25t-57 55.5t-24 57.5t-6 44zM84 739q0 -11 4 -27t14.5 -35.5t35.5 -34t59 -15.5 q11 0 27 4t35.5 14.5t34 35t15.5 58.5q1 12 -3.5 27.5t-15 35.5t-35 34.5t-58.5 15.5q-11 0 -27 -4t-36 -14.5t-34.5 -35.5t-15.5 -59z" />
<glyph unicode="&#xb1;" d="M70 115q0 14 10 24.5t24 10.5h498q14 0 24.5 -10.5t10.5 -24.5t-10.5 -24.5t-24.5 -10.5h-498q-14 0 -24 10.5t-10 24.5zM70 520q0 14 10 24.5t24 10.5h214v210q0 14 10.5 24.5t24.5 10.5t24.5 -10.5t10.5 -24.5v-210h214q14 0 24.5 -10.5t10.5 -24.5t-10.5 -24.5 t-24.5 -10.5h-214v-218q0 -14 -10.5 -24.5t-24.5 -10.5t-24.5 10.5t-10.5 24.5v218h-214q-14 0 -24 10.5t-10 24.5z" />
<glyph unicode="&#xb2;" horiz-adv-x="550" d="M50 785q14 79 60 120t133 41q118 0 167 -68q32 -45 32 -82q0 -32 -18 -66q-30 -58 -82 -101l-133 -80h188q14 0 24.5 -10.5t10.5 -24.5t-10.5 -24.5t-24.5 -10.5h-303q-25 0 -33 25q-8 24 14 39l227 143q38 33 60 75q11 21 11 35q0 6 -2.5 12.5t-5 10.5t-6.5 10t-5 7 q-10 17 -40 32t-71 15q-52 0 -86 -29q-29 -27 -39 -80q-2 -14 -14 -22.5t-26 -6.5t-22.5 14t-5.5 26z" />
<glyph unicode="&#xb3;" horiz-adv-x="641" d="M46 791q0 56 54 105.5t137 49.5q69 0 121 -35q18 -13 27 -20t24.5 -34t15.5 -60q0 -29 -14.5 -53.5t-40.5 -34.5q29 -15 42 -34.5t13 -61.5q0 -62 -52.5 -101t-139.5 -39q-76 0 -118 33t-66 91q-14 34 8 53q10 10 28 7t25 -16l42 -75q12 -15 28 -19t53 -4q64 0 93.5 22 t29.5 48q0 25 -22.5 37.5t-49.5 14t-49.5 11t-22.5 30.5q0 23 22.5 32.5t49.5 10t49.5 11.5t22.5 37q0 34 -33 54.5t-86 20.5q-34 0 -59.5 -9.5t-38 -24t-18 -26.5t-5.5 -21q0 -14 -10.5 -24.5t-24.5 -10.5t-24.5 10.5t-10.5 24.5z" />
<glyph unicode="&#xb4;" horiz-adv-x="481" d="M104 615.5q2 14.5 13 23.5l240 184q11 9 25.5 7t23.5 -13t6.5 -25.5t-13.5 -23.5l-239 -184q-11 -9 -25.5 -7t-23.5 13t-7 25.5z" />
<glyph unicode="&#xb5;" horiz-adv-x="540" d="M74 426q0 7 2.5 15.5t11.5 18t23 9.5q15 0 24.5 -10.5t9.5 -26.5v-235q0 -53 36.5 -90t88.5 -37q54 0 90.5 37t36.5 90v229q0 18 13 27.5t22 9.5q12 0 24.5 -11t12.5 -26v-389q0 -21 -18 -31t-35 0q-19 10 -19 31v10q-57 -47 -127 -47q-67 0 -125 48v-482q0 -15 -9 -25 t-25 -10q-10 0 -23.5 8t-13.5 27v860z" />
<glyph unicode="&#xb6;" horiz-adv-x="735" d="M66 700q-3 97 75.5 167.5t179.5 70.5h326q14 0 24.5 -10.5t10.5 -24.5t-10.5 -24.5t-24.5 -10.5h-92v-1310q0 -14 -10.5 -24.5t-24.5 -10.5t-24.5 10.5t-10.5 24.5v1310h-141v-1310q0 -14 -10.5 -24.5t-24.5 -10.5t-24.5 10.5t-10.5 24.5v899q-89 14 -148.5 82.5 t-59.5 160.5z" />
<glyph unicode="&#xb7;" horiz-adv-x="274" d="M74 414q0 23 15 38t38 15q22 0 36.5 -15t14.5 -38q0 -22 -15 -38t-36 -16q-23 0 -38 16t-15 38z" />
<glyph unicode="&#xb8;" horiz-adv-x="440" d="M66 -266q-3 14 4.5 26.5t21.5 15.5t26.5 -4.5t15.5 -21.5q12 -48 33 -66t69 -25q30 -4 63.5 30t25.5 66q-4 17 -24.5 32.5t-42 26.5t-41 35.5t-22.5 58.5q-1 8 -1 27.5t0.5 43t0.5 27.5h69v-27.5v-43v-27.5q1 -19 20.5 -36.5t42.5 -29.5t43.5 -33.5t22.5 -48.5 q-2 -39 -15 -69.5t-30.5 -47.5t-38 -28t-35.5 -14.5t-26 -3.5q-149 0 -182 137z" />
<glyph unicode="&#xb9;" horiz-adv-x="376" d="M66 760l108 155q9 13 13 17.5t10.5 9t15.5 4.5q12 0 23.5 -8t11.5 -18v-414q0 -23 -8 -29q-6 -6 -21 -6q-12 0 -24.5 6.5t-12.5 16.5v327l-43 -69q-2 -3 -7 -10t-8.5 -10.5t-9.5 -7.5t-12 -5q-2 -2 -6 -2q-11 0 -19.5 10t-8.5 21q0 1 -1.5 5.5t-0.5 6.5z" />
<glyph unicode="&#xba;" horiz-adv-x="573" d="M80 311q0 14 8.5 24.5t19.5 10.5h399q11 0 19.5 -10.5t8.5 -24.5t-8.5 -24.5t-19.5 -10.5h-399q-11 0 -19.5 10.5t-8.5 24.5zM82 709q0 96 64.5 163.5t156.5 67.5q91 0 156 -68t65 -163v-2q0 -95 -65 -162.5t-156 -67.5q-92 0 -156.5 68t-64.5 164zM156 709 q0 -65 43 -110.5t104 -45.5q60 0 104 46t44 110q0 65 -43.5 110t-104.5 45q-62 0 -104.5 -44.5t-42.5 -110.5z" />
<glyph unicode="&#xbb;" horiz-adv-x="923" d="M52 129q-2 -14 6 -26t22.5 -14.5t26.5 5.5l313 221q15 11 15 29q0 17 -14 28l-314 231q-11 8 -25.5 6t-22.5 -13t-6 -26t13 -23l274 -202l-274 -194q-12 -8 -14 -22zM435 129q-2 -14 6 -26t22.5 -14.5t26.5 5.5l313 221q15 11 15 29q0 17 -14 28l-314 231q-11 8 -26 6 t-23 -13t-5.5 -26t13.5 -23l274 -202l-274 -194q-12 -8 -14 -22z" />
<glyph unicode="&#xbc;" horiz-adv-x="1056" d="M112 136q0 14 10 25l687 685q11 10 25 10t24 -10t10 -24t-10 -25l-687 -685q-11 -10 -25 -10t-24 10t-10 24zM152 760l108 155q9 13 13 17.5t10.5 9t15.5 4.5q12 0 23.5 -8t11.5 -18v-414q0 -23 -8 -29q-6 -6 -21 -6q-12 0 -24.5 6.5t-12.5 16.5v327l-43 -69 q-2 -3 -7 -10t-8.5 -10.5t-9.5 -7.5t-12 -5q-2 -2 -6 -2q-11 0 -19.5 10t-8.5 21q0 1 -1.5 5.5t-0.5 6.5zM621 193v247q0 25 12 35q3 2 6 2t7 -1t7 -1q33 0 33 -20v-219h148v204v6q0 13 10 23t24 10q11 0 21 -7.5t10 -16.5v-219h35h7h8t8 -0.5t8 -1.5t6.5 -3.5t5.5 -5.5 q8 -5 8 -20q0 -11 -6.5 -23t-15.5 -12h-64v-117q0 -3 0.5 -12t0.5 -13.5t-2.5 -11t-8.5 -10.5q-9 -6 -21 -6q-11 0 -21.5 6.5t-10.5 16.5q0 38 -1 73.5t-1 73.5h-168q-15 -3 -30 3.5t-15 19.5z" />
<glyph unicode="&#xbd;" horiz-adv-x="1019" d="M132 130q0 14 10 25l688 685q10 10 24 10t25 -10t11 -24t-11 -25l-687 -685q-10 -10 -25 -10t-25 10t-10 24zM135 760l109 155q9 13 13 17.5t10.5 9t15.5 4.5q12 0 23 -8t11 -18v-414q0 -23 -8 -29q-6 -6 -20 -6q-12 0 -24.5 6.5t-12.5 16.5v327l-43 -69q-2 -3 -7 -10 t-8.5 -10.5t-9.5 -7.5t-12 -5q-2 -2 -6 -2q-12 0 -20.5 10t-8.5 21q0 1 -1.5 5.5t-0.5 6.5zM590 304q14 79 60 120t133 41q119 0 168 -68q32 -45 32 -82q0 -32 -18 -66q-30 -58 -82 -101l-133 -80h188q14 0 24.5 -10.5t10.5 -24.5t-10.5 -24.5t-24.5 -10.5h-303 q-25 0 -33 25q-8 24 14 39l226 143q40 34 61 75q10 19 10 35q0 11 -18 40q-10 17 -40.5 31.5t-71.5 14.5q-53 0 -86 -28q-28 -26 -38 -81q-2 -14 -14 -22t-26 -6t-23 14t-6 26z" />
<glyph unicode="&#xbe;" horiz-adv-x="1093" d="M72 791q0 56 54.5 105.5t137.5 49.5q68 0 120 -35q38 -27 52 -51q16 -28 16 -63q0 -29 -15 -53.5t-41 -34.5q29 -15 42.5 -34.5t13.5 -61.5q0 -61 -53 -100.5t-140 -39.5q-76 0 -117.5 33t-65.5 91q-15 35 7 53q10 10 28.5 7t25.5 -16l42 -75q12 -15 28 -19t52 -4 q64 0 93.5 22t29.5 48q0 25 -22.5 37.5t-49.5 14t-49.5 11t-22.5 30.5q0 23 22.5 32.5t49.5 10t49.5 11.5t22.5 37q0 34 -32.5 54.5t-85.5 20.5q-34 0 -59.5 -9.5t-38 -24t-18.5 -26.5t-6 -21q0 -14 -10.5 -24.5t-24.5 -10.5t-24.5 10.5t-10.5 24.5zM174 124q0 14 11 25 l688 685q11 10 25 10t24 -10t10 -25t-10 -25l-687 -685q-11 -10 -25 -10t-25 11q-11 10 -11 24zM686 193v247q0 25 12 35q3 2 6 2t7.5 -1t7.5 -1q33 0 33 -20v-219h147v204v6q0 12 10.5 22.5t24.5 10.5q11 0 21 -7.5t10 -16.5v-219h34h7h8t8 -0.5t8 -1.5t6.5 -3.5t5.5 -5.5 q9 -6 9 -20q0 -11 -7 -23t-16 -12h-63v-117q0 -2 0.5 -11.5t0 -14t-3 -11t-8.5 -10.5q-9 -6 -20 -6q-12 0 -22.5 6.5t-10.5 16.5q0 38 -1 73.5t-1 73.5h-168q-15 -3 -30 3.5t-15 19.5z" />
<glyph unicode="&#xbf;" horiz-adv-x="643" d="M91 237q-3 105 61 165q70 66 160 65v210q0 14 10.5 24.5t24.5 10.5t24.5 -10.5t10.5 -24.5v-223q1 -26 -19.5 -42t-50.5 -16q-61 0 -105 -41q-47 -44 -47 -117q5 -65 51 -113q51 -55 120 -56q63 -1 108 40q50 48 47 118q-2 20 17 33q16 11 36 0q1 -2 4 -3.5t4 -2.5 q10 -10 10 -25q3 -105 -69 -172q-65 -62 -155 -59q-100 3 -173 79q-68 71 -69 160zM296 882q0 22 14.5 37.5t36.5 15.5q23 0 38 -15.5t15 -37.5q0 -23 -15 -38t-38 -15q-22 0 -36.5 15t-14.5 38z" />
<glyph unicode="&#xc0;" horiz-adv-x="966" d="M16 35q0 4 4 16l439 877q9 18 33 18q21 0 30 -18l412 -877q4 -12 4 -16q0 -25 -20 -35h-15q-24 0 -33 20l-118 254h-541l-127 -254q-11 -20 -35 -20h-12q-21 10 -21 35zM246 344h473l-230 487zM361.5 1296.5q-2.5 14.5 6.5 25.5t23.5 13t25.5 -7l240 -184q11 -9 13 -23.5 t-7 -25.5t-23.5 -13t-25.5 7l-239 184q-11 9 -13.5 23.5z" />
<glyph unicode="&#xc1;" horiz-adv-x="966" d="M16 35q0 4 4 16l439 877q9 18 33 18q21 0 30 -18l412 -877q4 -12 4 -16q0 -25 -20 -35h-15q-24 0 -33 20l-118 254h-541l-127 -254q-11 -20 -35 -20h-12q-21 10 -21 35zM246 344h473l-230 487zM301 1108q2 14 13 23l240 185q11 9 25 6.5t23 -13.5t7 -25t-13 -23 l-240 -185q-11 -9 -25 -6.5t-23 13.5t-7 25z" />
<glyph unicode="&#xc2;" horiz-adv-x="966" d="M16 35q0 4 4 16l439 877q9 18 33 18q21 0 30 -18l412 -877q4 -12 4 -16q0 -25 -21 -35h-14q-24 0 -33 20l-118 254h-541l-127 -254q-11 -20 -35 -20h-12q-21 10 -21 35zM246 344h473l-230 487zM264 1151q25 21 105 104t105 103q18 14 35 0q25 -20 105 -103t105 -104 q14 -12 -9 -39q-7 -9 -23.5 -10.5t-25.5 6.5l-169 174l-170 -174q-9 -8 -26.5 -6.5t-24.5 10.5q-22 26 -7 39z" />
<glyph unicode="&#xc3;" horiz-adv-x="966" d="M16 35q0 4 4 16l439 877q9 18 33 18q21 0 30 -18l412 -877q4 -12 4 -16q0 -25 -20 -35h-15q-24 0 -33 20l-118 254h-541l-127 -254q-11 -20 -35 -20h-12q-21 10 -21 35zM128 1185.5q-1 14.5 8 25.5q23 27 39 44.5t41.5 42t50.5 37t48 12.5h5q63 -4 109 -27.5t71 -53.5 t45.5 -59.5t46.5 -49t61 -18.5q19 0 39 13t33.5 27.5t35.5 40.5t35 39q10 10 24 10t25 -10q10 -10 10 -24t-10 -25q-20 -20 -51 -55.5t-44.5 -48t-39 -24.5t-57.5 -13q-49 -1 -84 19t-56.5 49.5t-43.5 60t-60 53.5t-91 27h-3q-8 0 -17.5 -4t-19.5 -12t-19 -15.5t-20 -20 t-18 -20.5t-17.5 -21t-14.5 -18q-9 -11 -23.5 -12.5t-25.5 7.5t-12 23.5zM246 344h473l-230 487z" />
<glyph unicode="&#xc4;" horiz-adv-x="966" d="M16 35q0 4 4 16l439 877q9 18 33 18q21 0 30 -18l412 -877q4 -12 4 -16q0 -25 -20 -35h-15q-24 0 -33 20l-118 254h-541l-127 -254q-11 -20 -35 -20h-12q-21 10 -21 35zM246 344h473l-230 487zM329 1122q0 23 15 38.5t38 15.5q22 0 36.5 -15.5t14.5 -38.5 q0 -22 -14.5 -37.5t-36.5 -15.5q-23 0 -38 15.5t-15 37.5zM550 1122q0 23 15 38.5t38 15.5q22 0 36.5 -15.5t14.5 -38.5q0 -22 -14.5 -37.5t-36.5 -15.5q-23 0 -38 15.5t-15 37.5z" />
<glyph unicode="&#xc5;" horiz-adv-x="966" d="M16 35q0 4 4 16l439 877q9 18 33 18q21 0 30 -18l412 -877q4 -12 4 -16q0 -25 -20 -35h-15q-24 0 -33 20l-118 254h-541l-127 -254q-11 -20 -35 -20h-12q-21 10 -21 35zM246 344h473l-230 487zM309 1116q2 46 18.5 81t38 54t48.5 30.5t45.5 14.5t32.5 3q46 -2 81 -18.5 t53.5 -38t30 -48.5t14.5 -45.5t3 -32.5q-2 -46 -18 -81t-38 -53.5t-48.5 -30t-45 -14.5t-32.5 -3q-56 2 -96 25t-57 55.5t-24 57.5t-6 44zM379 1116q0 -11 4 -27t14.5 -35.5t35.5 -34t59 -15.5q11 0 27 4t35.5 14.5t34 35t15.5 58.5q1 12 -3.5 27.5t-15 35.5t-35 34.5 t-58.5 15.5q-11 0 -27 -4t-36 -14.5t-34.5 -35.5t-15.5 -59z" />
<glyph unicode="&#xc6;" horiz-adv-x="1359" d="M95 35q3 7 11 16l596 877q1 1 17 9v9h33h7h468q20 0 28 -16q7 -7 7 -17q0 -7 -7 -18q-10 -16 -28 -16h-441v-375h301q21 0 31 -17q9 -19 0 -34q-10 -19 -31 -19h-301v-364h441q19 0 28 -19q7 -7 7 -16q0 -8 -7 -19q-10 -16 -28 -16h-475h-1h-15h-19v8q-2 0 0 5t2 7v254 h-383l-174 -254q-21 -20 -44 -20h-19q-15 9 -4 35zM385 344h334v318v168z" />
<glyph unicode="&#xc7;" horiz-adv-x="1038" d="M76 473q0 175 121 311q71 81 171 121.5t210 40.5q172 0 307 -117q18 -14 49 -49q8 -8 8 -22q0 -9 -2 -13q-6 -18 -29 -22q-22 -3 -34 12q-20 23 -43 43q-117 99 -271 99q-87 0 -167.5 -35.5t-141.5 -102.5q-102 -114 -102 -266q0 -87 36 -166.5t105 -138.5 q116 -98 270 -98q88 0 169 35.5t140 101.5q12 12 29 12t25 -8q14 -10 14 -27q0 -12 -10 -22q-69 -79 -165.5 -120.5t-201.5 -41.5q-186 0 -321 117q-80 68 -123 162t-43 194zM400 -259q-3 14 4.5 26.5t21.5 15.5q15 3 27 -4t15 -21q12 -48 32.5 -66t68.5 -25q30 -4 63.5 30 t25.5 66q-4 17 -24.5 32t-42 26t-41 35.5t-22.5 58.5q-1 8 -1 28t0.5 43.5t0.5 27.5h70v-27.5v-43.5v-28q1 -19 20.5 -36.5t42.5 -29.5t43.5 -33t22.5 -48q-2 -39 -15 -69.5t-30.5 -47.5t-38 -28.5t-35.5 -15t-26 -3.5q-149 0 -182 137z" />
<glyph unicode="&#xc8;" horiz-adv-x="790" d="M106 0v35v428v12v438v33h35h539q21 0 29 -16q6 -6 6 -17q0 -9 -6 -18q-10 -16 -29 -16h-504v-375h301q21 0 31 -17q9 -19 0 -34q-10 -19 -31 -19h-301v-364h504q20 0 29 -19q6 -6 6 -16t-6 -19q-10 -16 -29 -16h-539h-35zM140.5 1284q-2.5 14 6.5 25t23.5 13.5t25.5 -6.5 l240 -185q11 -9 13 -23t-7 -25t-23.5 -13.5t-25.5 6.5l-239 185q-11 9 -13.5 23z" />
<glyph unicode="&#xc9;" horiz-adv-x="790" d="M106 0v35v428v12v438v33h35h539q21 0 29 -16q6 -6 6 -17q0 -9 -6 -18q-10 -16 -29 -16h-504v-375h301q21 0 31 -17q9 -19 0 -34q-10 -19 -31 -19h-301v-364h504q20 0 29 -19q6 -6 6 -16t-6 -19q-10 -16 -29 -16h-539h-35zM337.5 1108q2.5 14 13.5 23l239 185 q11 9 25.5 6.5t23.5 -13.5t7 -25t-13 -23l-240 -185q-11 -9 -25.5 -6.5t-23.5 13.5t-6.5 25z" />
<glyph unicode="&#xca;" horiz-adv-x="790" d="M106 0v35v428v12v438v33h35h539q21 0 29 -16q6 -6 6 -17q0 -9 -6 -18q-10 -16 -29 -16h-504v-375h301q21 0 31 -17q9 -19 0 -34q-10 -19 -31 -19h-301v-364h504q20 0 29 -19q6 -6 6 -16t-6 -19q-10 -16 -29 -16h-539h-35zM166 1151q25 21 105 104t105 103q17 14 35 0 q25 -20 105 -103t105 -104q14 -12 -9 -39q-7 -9 -23.5 -10.5t-25.5 6.5l-170 174l-169 -174q-9 -8 -27 -6.5t-25 10.5q-22 26 -6 39z" />
<glyph unicode="&#xcb;" horiz-adv-x="790" d="M106 0v35v428v12v438v33h35h539q21 0 29 -16q6 -6 6 -17q0 -9 -6 -18q-10 -16 -29 -16h-504v-375h301q21 0 31 -17q9 -19 0 -34q-10 -19 -31 -19h-301v-364h504q20 0 29 -19q6 -6 6 -16t-6 -19q-10 -16 -29 -16h-539h-35zM230 1122q0 23 15.5 38.5t38.5 15.5 q22 0 36.5 -15.5t14.5 -38.5q0 -22 -14.5 -37.5t-36.5 -15.5q-23 0 -38.5 15.5t-15.5 37.5zM452 1122q0 23 15 38.5t38 15.5q22 0 36.5 -15.5t14.5 -38.5q0 -22 -14.5 -37.5t-36.5 -15.5q-23 0 -38 15.5t-15 37.5z" />
<glyph unicode="&#xcc;" horiz-adv-x="405" d="M52.5 1284q-2.5 14 6.5 25t23.5 13.5t25.5 -6.5l240 -185q11 -9 13 -23t-7 -25t-23.5 -13.5t-25.5 6.5l-239 185q-11 9 -13.5 23zM61 33q0 3 5 18q10 17 30 17h64v806h-64q-20 0 -30 19q-5 10 -5 16q0 4 5 19q11 18 30 18h197q20 0 31 -18q6 -9 6 -19t-6 -16 q-10 -19 -31 -19h-64v-806h64q21 0 31 -17q6 -9 6 -18q0 -10 -6 -19q-8 -14 -31 -14h-197q-22 0 -30 14q-5 15 -5 19z" />
<glyph unicode="&#xcd;" horiz-adv-x="405" d="M22 1108q2 14 13 23l240 185q11 9 25.5 6.5t23.5 -13.5t6.5 -25t-13.5 -23l-239 -185q-11 -9 -25.5 -6.5t-23.5 13.5t-7 25zM61 33q0 3 5 18q10 17 30 17h64v806h-64q-20 0 -30 19q-5 10 -5 16q0 4 5 19q11 18 30 18h197q20 0 31 -18q6 -9 6 -19t-6 -16q-10 -19 -31 -19 h-64v-806h64q21 0 31 -17q6 -9 6 -18q0 -10 -6 -19q-8 -14 -31 -14h-197q-22 0 -30 14q-5 15 -5 19z" />
<glyph unicode="&#xce;" horiz-adv-x="405" d="M-156 1151q25 21 105 104t105 103q17 14 35 0q25 -20 105 -103t105 -104q14 -12 -8 -39q-7 -9 -24 -10.5t-26 6.5l-169 174l-170 -174q-9 -8 -26.5 -6.5t-24.5 10.5q-22 26 -7 39zM61 33q0 3 5 18q10 17 30 17h64v806h-64q-20 0 -30 19q-5 10 -5 16q0 4 5 19q11 18 30 18 h197q20 0 31 -18q6 -9 6 -19t-6 -16q-10 -19 -31 -19h-64v-806h64q21 0 31 -17q6 -9 6 -18q0 -10 -6 -19q-8 -14 -31 -14h-197q-22 0 -30 14q-5 15 -5 19z" />
<glyph unicode="&#xcf;" horiz-adv-x="405" d="M32 1122q0 23 15 38.5t38 15.5q22 0 36.5 -15.5t14.5 -38.5q0 -22 -14.5 -37.5t-36.5 -15.5q-23 0 -38 15.5t-15 37.5zM61 33q0 3 5 18q10 17 30 17h64v806h-64q-20 0 -30 19q-5 10 -5 16q0 4 5 19q11 18 30 18h197q20 0 31 -18q6 -9 6 -19t-6 -16q-10 -19 -31 -19h-64 v-806h64q21 0 31 -17q6 -9 6 -18q0 -10 -6 -19q-8 -14 -31 -14h-197q-22 0 -30 14q-5 15 -5 19zM253 1122q0 23 15 38.5t38 15.5q22 0 36.5 -15.5t14.5 -38.5q0 -22 -14.5 -37.5t-36.5 -15.5q-23 0 -38 15.5t-15 37.5z" />
<glyph unicode="&#xd0;" horiz-adv-x="966" d="M-4 481q0 14 10.5 24.5t24.5 10.5h73v430h285q204 0 349 -135.5t145 -331.5q0 -130 -66.5 -240.5t-180 -174.5t-247.5 -64h-285v446h-73q-14 0 -24.5 10.5t-10.5 24.5zM172 446q0 -83 0.5 -169.5t1 -142.5t0.5 -64h215q177 0 300.5 119.5t123.5 289.5t-122.5 285 t-301.5 115h-217v-15v-104v-244h100q14 0 24.5 -10.5t10.5 -24.5t-10.5 -24.5t-24.5 -10.5h-100z" />
<glyph unicode="&#xd1;" horiz-adv-x="960" d="M105.5 1198.5q-1.5 14.5 7.5 25.5q31 37 53.5 61t59.5 49.5t67 25.5q1 0 3 -0.5l2 -0.5q63 -4 109 -27.5t71 -53.5t45.5 -59.5t46.5 -49t61 -18.5q24 0 45.5 16t53.5 54.5t43 49.5q10 10 24 10t25 -10q10 -10 10.5 -24.5t-9.5 -24.5q-20 -20 -51 -55.5t-44.5 -48 t-39 -24.5t-57.5 -13q-49 -1 -84 19t-56.5 49.5t-44 60t-60.5 53.5t-91 27h-2q-8 0 -17.5 -4t-19.5 -12t-19 -15.5t-20 -20t-18 -20.5t-17.5 -21t-14.5 -18q-9 -11 -23.5 -12t-25.5 8t-12.5 23.5zM107 35v862q0 26 22 33q25 11 39 -10l623 -787v764q0 15 9.5 26t24.5 11 t25 -10q10 -13 10 -27v-862q0 -11 -7 -21.5t-17 -13.5q-21 -6 -39 12l-621 787v-764q0 -13 -11 -24t-24 -11t-23.5 10.5t-10.5 24.5z" />
<glyph unicode="&#xd2;" horiz-adv-x="1114" d="M78 471q0 97 37.5 184.5t101.5 151.5t151.5 101.5t184.5 37.5t184.5 -37.5t151.5 -101.5t101.5 -151.5t37.5 -184.5t-37.5 -185t-101.5 -152t-152 -102t-184 -38t-184 38t-152 102t-101.5 152t-37.5 185zM147 471q0 -169 118.5 -288.5t287.5 -119.5q168 0 286.5 119.5 t118.5 288.5q0 168 -118.5 287t-286.5 119t-287 -119t-119 -287zM300 1284q-2 14 7 25t23.5 13.5t25.5 -6.5l239 -185q11 -9 13.5 -23t-6.5 -25t-23.5 -13.5t-25.5 6.5l-240 185q-11 9 -13 23z" />
<glyph unicode="&#xd3;" horiz-adv-x="1114" d="M78 471q0 97 37.5 184.5t101.5 151.5t151.5 101.5t184.5 37.5t184.5 -37.5t151.5 -101.5t101.5 -151.5t37.5 -184.5t-37.5 -185t-101.5 -152t-152 -102t-184 -38t-184 38t-152 102t-101.5 152t-37.5 185zM147 471q0 -169 118.5 -288.5t287.5 -119.5q168 0 286.5 119.5 t118.5 288.5q0 168 -118.5 287t-286.5 119t-287 -119t-119 -287zM497.5 1108q2.5 14 13.5 23l239 185q11 9 25.5 6.5t23.5 -13.5t7 -25t-13 -23l-240 -185q-11 -9 -25.5 -6.5t-23.5 13.5t-6.5 25z" />
<glyph unicode="&#xd4;" horiz-adv-x="1114" d="M78 471q0 97 37.5 184.5t101.5 151.5t151.5 101.5t184.5 37.5t184.5 -37.5t151.5 -101.5t101.5 -151.5t37.5 -184.5t-37.5 -185t-101.5 -152t-152 -102t-184 -38t-184 38t-152 102t-101.5 152t-37.5 185zM147 471q0 -169 118.5 -288.5t287.5 -119.5q168 0 286.5 119.5 t118.5 288.5q0 168 -118.5 287t-286.5 119t-287 -119t-119 -287zM309 1151q25 21 105 104t105 103q17 14 35 0q25 -20 105 -103t105 -104q14 -12 -8 -39q-7 -9 -24 -10.5t-26 6.5l-169 174l-170 -174q-9 -8 -26.5 -6.5t-24.5 10.5q-22 26 -7 39z" />
<glyph unicode="&#xd5;" horiz-adv-x="1114" d="M78 471q0 97 37.5 184.5t101.5 151.5t151.5 101.5t184.5 37.5t184.5 -37.5t151.5 -101.5t101.5 -151.5t37.5 -184.5t-37.5 -185t-101.5 -152t-152 -102t-184 -38t-184 38t-152 102t-101.5 152t-37.5 185zM147 471q0 -169 118.5 -288.5t287.5 -119.5q168 0 286.5 119.5 t118.5 288.5q0 168 -118.5 287t-286.5 119t-287 -119t-119 -287zM189.5 1185.5q-1.5 14.5 7.5 25.5q31 37 53.5 61t59.5 49.5t67 25.5h5q63 -4 109 -27.5t71 -53.5t45.5 -59.5t46.5 -49t61 -18.5q24 0 45.5 16t53.5 54.5t43 49.5q10 10 24 10t25 -10q10 -10 10.5 -24.5 t-9.5 -24.5q-20 -20 -51 -55.5t-44.5 -48t-39 -24.5t-57.5 -13q-49 -1 -84 19t-56.5 49.5t-44 60t-60.5 53.5t-91 27h-2q-8 0 -17.5 -4t-19.5 -12t-19 -15.5t-20 -20t-18 -20.5t-17.5 -21t-14.5 -18q-9 -11 -23.5 -12.5t-25.5 7.5t-12.5 23.5z" />
<glyph unicode="&#xd6;" horiz-adv-x="1114" d="M78 471q0 97 37.5 184.5t101.5 151.5t151.5 101.5t184.5 37.5t184.5 -37.5t151.5 -101.5t101.5 -151.5t37.5 -184.5t-37.5 -185t-101.5 -152t-152 -102t-184 -38t-184 38t-152 102t-101.5 152t-37.5 185zM147 471q0 -169 118.5 -288.5t287.5 -119.5q168 0 286.5 119.5 t118.5 288.5q0 168 -118.5 287t-286.5 119t-287 -119t-119 -287zM390 1122q0 23 15 38.5t38 15.5q22 0 37 -15.5t15 -38.5q0 -22 -15 -37.5t-37 -15.5q-23 0 -38 15.5t-15 37.5zM611 1122q0 23 15.5 38.5t38.5 15.5q22 0 36.5 -15.5t14.5 -38.5q0 -22 -14.5 -37.5 t-36.5 -15.5q-23 0 -38.5 15.5t-15.5 37.5z" />
<glyph unicode="&#xd7;" horiz-adv-x="589" d="M86 172q0 14 10 25l141 141l-141 141q-10 11 -10 25t10 24t24 10t25 -10l142 -141l141 141q10 10 24 10t25 -10t11 -24t-11 -25l-141 -141l141 -141q11 -11 11 -25t-11 -25t-25 -11t-24 11l-141 142l-142 -142q-11 -11 -25 -11t-24 11t-10 25z" />
<glyph unicode="&#xd8;" horiz-adv-x="1114" d="M78 471q0 97 37.5 184.5t101.5 151.5t151.5 101.5t184.5 37.5q84 0 166 -30l14 30q6 13 19.5 18t26.5 -1t18 -19.5t-1 -26.5l-14 -30q112 -62 179 -173t67 -243q0 -97 -37.5 -185t-101.5 -152t-152 -102t-184 -38q-97 0 -183 37l-16 -34q-6 -13 -19.5 -18t-26.5 1t-18 20 t1 27l17 35q-105 64 -167.5 172.5t-62.5 236.5zM147 471q0 -108 51.5 -199.5t139.5 -146.5l351 728q-67 24 -136 24q-168 0 -287 -119t-119 -287zM400 93q74 -30 153 -30q168 0 286.5 119.5t118.5 288.5q0 112 -56 206.5t-150 147.5z" />
<glyph unicode="&#xd9;" horiz-adv-x="954" d="M113 354v551q0 13 11 23t26 10t26 -8q12 -12 12 -25v-551q0 -117 83.5 -196.5t207.5 -79.5q126 0 209.5 79.5t83.5 196.5v551q0 13 11 23t26 10q17 0 28 -9.5t11 -23.5v-551q0 -147 -106.5 -250.5t-262.5 -103.5q-154 0 -260 103.5t-106 250.5zM226.5 1284 q-2.5 14 6.5 25t23.5 13.5t25.5 -6.5l240 -185q11 -9 13 -23t-7 -25t-23.5 -13.5t-25.5 6.5l-239 185q-11 9 -13.5 23z" />
<glyph unicode="&#xda;" horiz-adv-x="954" d="M113 354v551q0 13 11 23t26 10t26 -8q12 -12 12 -25v-551q0 -117 83.5 -196.5t207.5 -79.5q126 0 209.5 79.5t83.5 196.5v551q0 13 11 23t26 10q17 0 28 -9.5t11 -23.5v-551q0 -147 -106.5 -250.5t-262.5 -103.5q-154 0 -260 103.5t-106 250.5zM423.5 1108 q2.5 14 13.5 23l239 185q11 9 25.5 6.5t23.5 -13.5t7 -25t-13 -23l-240 -185q-11 -9 -25.5 -6.5t-23.5 13.5t-6.5 25z" />
<glyph unicode="&#xdb;" horiz-adv-x="954" d="M113 354v551q0 14 10.5 23.5t25.5 9.5q16 0 27 -8q12 -12 12 -25v-551q0 -117 83.5 -196.5t207.5 -79.5q126 0 209.5 79.5t83.5 196.5v551q0 13 11 23t26 10q17 0 28 -9.5t11 -23.5v-551q0 -147 -106.5 -250.5t-262.5 -103.5q-154 0 -260 103.5t-106 250.5zM252 1151 q25 21 105 104t105 103q18 14 35 0q25 -20 105 -103t105 -104q14 -12 -9 -39q-7 -9 -23.5 -10.5t-25.5 6.5l-170 174l-169 -174q-9 -8 -27 -6.5t-25 10.5q-22 26 -6 39z" />
<glyph unicode="&#xdc;" horiz-adv-x="954" d="M113 354v551q0 13 11 23t26 10t26 -8q12 -12 12 -25v-551q0 -117 83.5 -196.5t207.5 -79.5q126 0 209.5 79.5t83.5 196.5v551q0 13 11 23t26 10q17 0 28 -9.5t11 -23.5v-551q0 -147 -106.5 -250.5t-262.5 -103.5q-154 0 -260 103.5t-106 250.5zM316 1122q0 23 15.5 38.5 t38.5 15.5q22 0 36.5 -15.5t14.5 -38.5q0 -22 -14.5 -37.5t-36.5 -15.5q-23 0 -38.5 15.5t-15.5 37.5zM538 1122q0 23 15 38.5t38 15.5q22 0 36.5 -15.5t14.5 -38.5q0 -22 -14.5 -37.5t-36.5 -15.5q-23 0 -38 15.5t-15 37.5z" />
<glyph unicode="&#xdd;" horiz-adv-x="798" d="M-39 899q0 6 4 14q9 19 31 19q16 0 29 -10l319 -406l318 406q13 10 30 10q12 0 21 -6q12 -12 12 -27q0 -9 -4 -25l-340 -430v-409q0 -19 -19 -29q-9 -6 -18 -6q-11 0 -20 6q-19 11 -19 29v409l-338 433q-6 9 -6 22zM288.5 1108q2.5 14 13.5 23l239 185q11 9 25.5 6.5 t23.5 -13.5t7 -25t-13 -23l-240 -185q-11 -9 -25.5 -6.5t-23.5 13.5t-6.5 25z" />
<glyph unicode="&#xde;" horiz-adv-x="591" d="M72 37v864q0 15 9.5 26t22.5 11h2q15 0 25 -10q2 -2 5 -4t4 -4t1 -7v-215q63 66 152 66q94 0 179 -77t85 -173v-84q0 -94 -85 -170t-179 -76q-78 0 -152 78v-225q0 -21 -18 -33q-8 -4 -17 -4q-6 0 -18 4q-16 13 -16 33zM147 432q0 -66 43 -113t103 -47t124 67.5t64 133.5 q6 62 -62.5 134t-127.5 69q-57 0 -97 -35.5t-46 -95.5q-1 -6 -1 -113z" />
<glyph unicode="&#xdf;" horiz-adv-x="720" d="M107 31v774q0 13 7 32.5t21.5 43t44.5 41t68 19.5q48 2 98.5 -9.5t99 -37.5t81.5 -75.5t37 -114.5v-6q0 -88 -42.5 -137t-158.5 -63q121 -82 167 -129q79 -79 85 -159q1 -22 -9 -54t-32 -69t-68 -63t-107 -28q-63 -2 -100 26.5t-81 92.5q-8 12 -6 26.5t14 22.5t27 6 t22 -14q18 -28 25 -37.5t23 -26t34 -22t42 -4.5q66 2 107.5 47.5t38.5 95.5q-3 42 -38 83.5t-78 70t-99 68.5t-86 72q-16 18 -7 38q10 21 32 21q91 0 141.5 17t67 45t16.5 74v4q-3 50 -29.5 86t-66.5 53t-77.5 24t-72.5 6q-27 -1 -49 -24t-22 -42v-774q0 -14 -10.5 -24.5 t-24.5 -10.5t-24.5 10.5t-10.5 24.5z" />
<glyph unicode="&#xe0;" horiz-adv-x="573" d="M70 264q0 78 41 133q29 40 75 63t95 23h2q79 0 137 -43l10 -10q2 -1 2 2q0 13 7 24.5t18 14.5q4 2 10 2q12 0 23.5 -11t11.5 -24v-395q0 -21 -6 -27q-11 -14 -29 -14t-27 12q-8 8 -8 39q-63 -53 -141 -53q-58 0 -105 23q-49 24 -81.5 69t-32.5 96q0 12 -1 38t-1 38z M139 262q0 -4 1 -13t1 -24q0 -43 6 -61q12 -36 43 -61t70 -31q4 0 13.5 -1t13.5 -1q27 0 57 10q36 14 61 47t25 70q0 13 1 36.5t1 34.5q0 80 -65 123q-36 23 -86 23q-3 0 -10.5 -1t-10.5 -1q-40 -6 -71 -33t-42 -64q-8 -24 -8 -53zM141.5 821.5q-2.5 14.5 6.5 25.5t23.5 13 t25.5 -7l240 -184q11 -9 13 -23.5t-7 -25.5t-23.5 -13.5t-25.5 6.5l-239 185q-11 9 -13.5 23.5z" />
<glyph unicode="&#xe1;" horiz-adv-x="573" d="M70 264q0 78 41 133q29 40 75 63t95 23h2q79 0 137 -43l10 -10q2 -1 2 2q0 13 7 24.5t18 14.5q4 2 10 2q12 0 23.5 -11t11.5 -24v-395q0 -21 -6 -27q-11 -14 -29 -14t-27 12q-8 8 -8 39q-63 -53 -141 -53q-58 0 -105 23q-49 24 -81.5 69t-32.5 96q0 12 -1 38t-1 38z M139 262q0 -4 1 -13t1 -24q0 -43 6 -61q12 -36 43 -61t70 -31q4 0 13.5 -1t13.5 -1q27 0 57 10q36 14 61 47t25 70q0 13 1 36.5t1 34.5q0 80 -65 123q-36 23 -86 23q-3 0 -10.5 -1t-10.5 -1q-40 -6 -71 -33t-42 -64q-8 -24 -8 -53zM226 645.5q2 14.5 13 23.5l240 184 q11 9 25.5 7t23.5 -13t6.5 -25.5t-13.5 -23.5l-239 -185q-11 -9 -25.5 -6.5t-23.5 13.5t-7 25.5z" />
<glyph unicode="&#xe2;" horiz-adv-x="573" d="M54 688q25 20 105 103.5t105 103.5q18 14 35 0q25 -20 105 -103.5t105 -103.5q14 -12 -8 -39q-7 -9 -24 -10.5t-26 6.5l-169 174l-170 -174q-9 -8 -26.5 -6.5t-24.5 10.5q-22 26 -7 39zM70 264q0 78 41 133q29 40 75 63t95 23h2q79 0 137 -43l10 -10q2 -1 2 2 q0 13 7 24.5t18 14.5q4 2 10 2q12 0 23.5 -11t11.5 -24v-395q0 -21 -6 -27q-11 -14 -29 -14t-27 12q-8 8 -8 39q-63 -53 -141 -53q-58 0 -105 23q-49 24 -81.5 69t-32.5 96q0 12 -1 38t-1 38zM139 262q0 -4 1 -13t1 -24q0 -43 6 -61q12 -36 43 -61t70 -31q4 0 13.5 -1 t13.5 -1q27 0 57 10q36 14 61 47t25 70q0 13 1 36.5t1 34.5q0 80 -65 123q-36 23 -86 23q-3 0 -10.5 -1t-10.5 -1q-40 -6 -71 -33t-42 -64q-8 -24 -8 -53z" />
<glyph unicode="&#xe3;" horiz-adv-x="573" d="M-38.5 727.5q-1.5 14.5 7.5 25.5q31 37 53 60.5t59 49t67 25.5h5q63 -4 109 -27.5t71 -53.5t45.5 -59.5t46.5 -49t61 -18.5q19 0 39 13t33.5 27.5t35.5 40.5t35 39q10 10 24 10t25 -10q10 -10 10 -24t-10 -25q-20 -20 -51 -55.5t-44.5 -48t-39 -24.5t-57.5 -13 q-49 -1 -84 19t-56.5 49.5t-43.5 60t-60 53.5t-91 27h-3q-11 0 -24 -6.5t-29 -22.5t-24.5 -25t-27 -32t-20.5 -25q-9 -11 -23.5 -12t-25.5 8t-12.5 23.5zM70 264q0 78 41 133q29 40 75 63t95 23h2q79 0 137 -43l10 -10q2 -1 2 2q0 13 7 24.5t18 14.5q4 2 10 2q12 0 23.5 -11 t11.5 -24v-395q0 -21 -6 -27q-11 -14 -29 -14t-27 12q-8 8 -8 39q-63 -53 -141 -53q-58 0 -105 23q-49 24 -81.5 69t-32.5 96q0 12 -1 38t-1 38zM139 262q0 -4 1 -13t1 -24q0 -43 6 -61q12 -36 43 -61t70 -31q4 0 13.5 -1t13.5 -1q27 0 57 10q36 14 61 47t25 70q0 13 1 36.5 t1 34.5q0 80 -65 123q-36 23 -86 23q-3 0 -10.5 -1t-10.5 -1q-40 -6 -71 -33t-42 -64q-8 -24 -8 -53z" />
<glyph unicode="&#xe4;" horiz-adv-x="573" d="M70 264q0 78 41 133q29 40 75 63t95 23h2q79 0 137 -43l10 -10q2 -1 2 2q0 13 7 24.5t18 14.5q4 2 10 2q12 0 23.5 -11t11.5 -24v-395q0 -21 -6 -27q-11 -14 -29 -14t-27 12q-8 8 -8 39q-63 -53 -141 -53q-58 0 -105 23q-49 24 -81.5 69t-32.5 96q0 12 -1 38t-1 38z M119 659q0 23 15 38.5t38 15.5q22 0 36.5 -15.5t14.5 -38.5q0 -22 -14.5 -37.5t-36.5 -15.5q-23 0 -38 15.5t-15 37.5zM139 262q0 -4 1 -13t1 -24q0 -43 6 -61q12 -36 43 -61t70 -31q4 0 13.5 -1t13.5 -1q27 0 57 10q36 14 61 47t25 70q0 13 1 36.5t1 34.5q0 80 -65 123 q-36 23 -86 23q-3 0 -10.5 -1t-10.5 -1q-40 -6 -71 -33t-42 -64q-8 -24 -8 -53zM340 659q0 23 15 38.5t38 15.5q22 0 36.5 -15.5t14.5 -38.5q0 -22 -14.5 -37.5t-36.5 -15.5q-23 0 -38 15.5t-15 37.5z" />
<glyph unicode="&#xe5;" horiz-adv-x="573" d="M70 264q0 78 41 133q29 40 75 63t95 23h2q79 0 137 -43l10 -10q2 -1 2 2q0 13 7 24.5t18 14.5q4 2 10 2q12 0 23.5 -11t11.5 -24v-395q0 -21 -6 -27q-11 -14 -29 -14t-27 12q-8 8 -8 39q-63 -53 -141 -53q-58 0 -105 23q-49 24 -81.5 69t-32.5 96q0 12 -1 38t-1 38z M101 784q2 46 18.5 81t38 54t48.5 30.5t45.5 14.5t32.5 3q46 -2 81 -18.5t53.5 -38t30 -48.5t14.5 -45.5t3 -32.5q-2 -46 -18 -81t-38 -53.5t-48.5 -30t-45 -14.5t-32.5 -3q-56 2 -96 25t-57 55.5t-24 57.5t-6 44zM139 262q0 -4 1 -13t1 -24q0 -43 6 -61q12 -36 43 -61 t70 -31q4 0 13.5 -1t13.5 -1q27 0 57 10q36 14 61 47t25 70q0 13 1 36.5t1 34.5q0 80 -65 123q-36 23 -86 23q-3 0 -10.5 -1t-10.5 -1q-40 -6 -71 -33t-42 -64q-8 -24 -8 -53zM171 784q0 -11 4 -27t14.5 -35.5t35.5 -34t59 -15.5q11 0 27 4t35.5 14.5t34 35t15.5 58.5 q1 12 -3.5 27.5t-15 35.5t-35 34.5t-58.5 15.5q-11 0 -27 -4t-36 -14.5t-34.5 -35.5t-15.5 -59z" />
<glyph unicode="&#xe6;" horiz-adv-x="905" d="M70 264q0 78 41 133q29 40 75 63t95 23h2q79 0 137 -43q1 -1 3 -5q3 -8 3 -3v6v8t0.5 8.5t1 8.5t2 8t4 8t5.5 5.5t7.5 3.5t10.5 1q3 0 5.5 1.5t4.5 1.5q17 0 33 -44q52 41 114 41h9q75 0 133 -49q46 -37 71 -102q2 -4 2 -12h2q0 -3 1.5 -8.5t1.5 -8.5q0 -5 -1.5 -19.5 t-1.5 -25.5h-327q0 -20 -2 -56v-26q2 -50 30 -76q40 -32 93 -32q74 0 120 67q10 17 31 17q18 0 29 -23q7 -20 -4 -37q-32 -47 -79 -72.5t-99 -25.5q-65 0 -121 41q0 -19 -6 -25q-11 -14 -29 -14t-27 12q-8 8 -8 39q-63 -53 -141 -53q-58 0 -105 23q-49 24 -81.5 69t-32.5 96 q0 12 -1 38t-1 38zM139 262q0 -4 1 -13t1 -24q0 -43 6 -61q12 -36 43 -61t70 -31q4 0 13.5 -1t13.5 -1q27 0 57 10q36 14 61 47t25 70q0 20 2 58q0 6 -0.5 13t-1.5 15t-1 13q-11 61 -62 95q-36 23 -86 23q-3 0 -10.5 -1t-10.5 -1q-40 -6 -71 -33t-42 -64q-8 -24 -8 -53z M502 339q4 -9 2 -13h254q-12 27 -43 55q-41 35 -94 35q-70 0 -119 -68v-9z" />
<glyph unicode="&#xe7;" horiz-adv-x="534" d="M68 240q0 98 59 163q68 78 158 78q99 0 164 -65l8 -8q15 -15 8 -35q-7 -22 -25 -25q-21 -7 -34 10l-7 7q-45 45 -106 45q-64 0 -115 -54q-41 -50 -41 -116q0 -74 49 -123q45 -45 107 -45q68 0 115 53q12 16 34 12q20 -3 27 -24q0 -2 1 -5.5t1 -5.5q0 -14 -10 -24 q-69 -78 -168 -78q-91 0 -154 63q-71 71 -71 177zM130 -259q-3 14 4.5 26.5t21.5 15.5q15 3 27 -4t15 -21q12 -48 32.5 -66t68.5 -25q30 -4 63.5 30t25.5 66q-4 17 -24.5 32t-42 26t-41 35.5t-22.5 58.5v99h70v-27.5v-43.5v-28q1 -19 20.5 -36.5t42.5 -29.5t43.5 -33 t22.5 -48q-2 -48 -21 -83t-44.5 -51t-46 -23t-34.5 -7q-148 0 -181 137z" />
<glyph unicode="&#xe8;" horiz-adv-x="577" d="M68 244q0 82 45 147q31 46 75 72t91 26h8q75 0 133 -49q47 -39 72 -102q2 -4 2 -12h2q0 -3 1 -8.5t1 -8.5q0 -5 -1 -19.5t-1 -25.5h-359q0 -104 60 -158q40 -32 92 -32q75 0 121 67q10 17 30 17q18 0 29 -23q7 -20 -4 -37q-32 -47 -79 -72.5t-99 -25.5q-73 0 -131 49 q-42 35 -65 87t-23 108zM142.5 827.5q-2.5 14.5 6.5 25.5t23.5 13t25.5 -7l240 -184q11 -9 13 -23.5t-7 -25.5t-23.5 -13t-25.5 7l-239 184q-11 9 -13.5 23.5zM154 326h268q-12 27 -43 55q-41 35 -94 35q-70 0 -119 -68q-2 -4 -6 -11t-6 -11z" />
<glyph unicode="&#xe9;" horiz-adv-x="577" d="M68 244q0 82 45 147q31 46 75 72t91 26h8q75 0 133 -49q47 -39 72 -102q2 -4 2 -12h2q0 -3 1 -8.5t1 -8.5q0 -5 -1 -19.5t-1 -25.5h-359q0 -104 60 -158q40 -32 92 -32q75 0 121 67q10 17 30 17q18 0 29 -23q7 -20 -4 -37q-32 -47 -79 -72.5t-99 -25.5q-73 0 -131 49 q-42 35 -65 87t-23 108zM124.5 651.5q2.5 14.5 13.5 23.5l239 184q11 9 25.5 7t23.5 -13t7 -25.5t-13 -23.5l-240 -184q-11 -9 -25.5 -7t-23.5 13t-6.5 25.5zM154 326h268q-12 27 -43 55q-41 35 -94 35q-70 0 -119 -68q-2 -4 -6 -11t-6 -11z" />
<glyph unicode="&#xea;" horiz-adv-x="577" d="M55 694q25 20 105 103t105 104q17 14 35 0q25 -21 105 -103.5t105 -103.5q14 -12 -8 -39q-7 -9 -24 -10.5t-26 6.5l-169 174l-170 -174q-9 -8 -26.5 -6.5t-24.5 10.5q-22 26 -7 39zM68 244q0 82 45 147q31 46 75 72t91 26h8q75 0 133 -49q47 -39 72 -102q2 -4 2 -12h2 q0 -3 1 -8.5t1 -8.5q0 -5 -1 -19.5t-1 -25.5h-359q0 -104 60 -158q40 -32 92 -32q75 0 121 67q10 17 30 17q18 0 29 -23q7 -20 -4 -37q-32 -47 -79 -72.5t-99 -25.5q-73 0 -131 49q-42 35 -65 87t-23 108zM154 326h268q-12 27 -43 55q-41 35 -94 35q-70 0 -119 -68 q-2 -4 -6 -11t-6 -11z" />
<glyph unicode="&#xeb;" horiz-adv-x="577" d="M68 244q0 82 45 147q31 46 75 72t91 26h8q75 0 133 -49q47 -39 72 -102q2 -4 2 -12h2q0 -3 1 -8.5t1 -8.5q0 -5 -1 -19.5t-1 -25.5h-359q0 -104 60 -158q40 -32 92 -32q75 0 121 67q10 17 30 17q18 0 29 -23q7 -20 -4 -37q-32 -47 -79 -72.5t-99 -25.5q-73 0 -131 49 q-42 35 -65 87t-23 108zM120 666q0 23 15 38t38 15q22 0 36.5 -15t14.5 -38q0 -22 -15 -38t-36 -16q-23 0 -38 16t-15 38zM154 326h268q-12 27 -43 55q-41 35 -94 35q-70 0 -119 -68q-2 -4 -6 -11t-6 -11zM341 666q0 23 15 38t38 15q22 0 36.5 -15t14.5 -38q0 -22 -15 -38 t-36 -16q-23 0 -38 16t-15 38z" />
<glyph unicode="&#xec;" horiz-adv-x="286" d="M-3 788.5q-2 14.5 7 25.5t23.5 13t25.5 -7l239 -184q11 -9 13.5 -23.5t-6.5 -25.5t-23.5 -13t-25.5 7l-240 184q-11 9 -13 23.5zM104 35v405q0 14 11 24.5t24 10.5q14 0 27 -10q10 -10 10 -25v-405q0 -22 -18 -31q-8 -4 -17 -4q-6 0 -18 4q-19 11 -19 31z" />
<glyph unicode="&#xed;" horiz-adv-x="286" d="M-17 637q2 14 13 23l240 185q11 9 25.5 6.5t23.5 -13.5t7 -25t-13 -23l-240 -185q-11 -9 -25.5 -6.5t-23.5 13.5t-7 25zM104 35v405q0 14 11 24.5t24 10.5q14 0 27 -10q10 -10 10 -25v-405q0 -22 -18 -31q-8 -4 -17 -4q-6 0 -18 4q-19 11 -19 31z" />
<glyph unicode="&#xee;" horiz-adv-x="286" d="M-80 680q25 21 105 104t105 103q18 14 35 0q25 -20 105 -103t105 -104q14 -12 -9 -39q-7 -9 -23.5 -10.5t-25.5 6.5l-170 174l-169 -174q-9 -8 -27 -6.5t-25 10.5q-22 26 -6 39zM104 35v405q0 14 11 24.5t24 10.5q14 0 27 -10q10 -10 10 -25v-405q0 -22 -18 -31 q-8 -4 -17 -4q-6 0 -18 4q-19 11 -19 31z" />
<glyph unicode="&#xef;" horiz-adv-x="286" d="M-24 651q0 23 15.5 38.5t38.5 15.5q22 0 36.5 -15.5t14.5 -38.5q0 -22 -14.5 -37.5t-36.5 -15.5q-23 0 -38.5 15.5t-15.5 37.5zM104 35v405q0 14 11 24.5t24 10.5q14 0 27 -10q10 -10 10 -25v-405q0 -22 -18 -31q-8 -4 -17 -4q-6 0 -18 4q-19 11 -19 31zM198 651 q0 23 15 38.5t38 15.5q22 0 36.5 -15.5t14.5 -38.5q0 -22 -14.5 -37.5t-36.5 -15.5q-23 0 -38 15.5t-15 37.5z" />
<glyph unicode="&#xf0;" horiz-adv-x="585" d="M63 231q0 96 65 164t157 68q61 0 115 -35q-44 149 -126 283l-118 -87q-11 -9 -25.5 -7t-23.5 13t-6.5 25.5t13.5 23.5l121 90q-66 92 -111 107q-13 4 -19.5 17t-2.5 27t17.5 20t26.5 2q60 -21 144 -133l111 83q11 9 25.5 6.5t23.5 -13.5t6.5 -25t-13.5 -23l-114 -85 q65 -103 112 -224.5t58 -238.5q7 -27 7 -58v-2q0 -95 -65 -162t-156 -67q-92 0 -157 68t-65 163zM137 231q0 -64 43 -109.5t105 -45.5q60 0 103.5 45.5t43.5 109.5q0 65 -43 110.5t-104 45.5q-62 0 -105 -45t-43 -111z" />
<glyph unicode="&#xf1;" horiz-adv-x="532" d="M-99.5 702.5q-1.5 14.5 7.5 25.5q31 37 53.5 61t59.5 49.5t67 25.5h5q63 -4 109 -27.5t71 -53.5t45.5 -59.5t46.5 -49.5t61 -19q24 0 45.5 16t53.5 54.5t43 49.5q10 10 24.5 10.5t24.5 -9.5t10.5 -24.5t-9.5 -24.5q-20 -20 -51 -55.5t-44.5 -48t-39 -24.5t-57.5 -13 q-42 -1 -73.5 13t-49.5 36t-39 48.5t-40 50t-53.5 40.5t-79.5 20h-3q-8 0 -17.5 -3.5t-20 -12t-18.5 -15.5t-19.5 -20t-18 -20.5t-18 -21t-14.5 -17.5q-9 -11 -23.5 -12.5t-25.5 7.5t-12.5 23.5zM68 35v231v41v117q0 23 16 33q9 6 18 6q10 0 19 -6q16 -10 16 -33v-8 q57 47 127 47q90 0 162 -86q35 -42 35 -111v-231q0 -21 -17 -31q-12 -4 -18 -4t-18 4q-17 10 -17 31v231q0 52 -37 88.5t-90 36.5q-54 0 -90.5 -36t-36.5 -89v-231q0 -21 -16 -31q-12 -4 -19 -4q-6 0 -18 4q-16 10 -16 31z" />
<glyph unicode="&#xf2;" horiz-adv-x="585" d="M63 231q0 96 65 164t157 68q91 0 156 -68.5t65 -163.5v-2q0 -95 -65 -162t-156 -67q-92 0 -157 68t-65 163zM136.5 800.5q-2.5 14.5 6.5 25.5t23.5 13t25.5 -7l240 -184q11 -9 13 -23.5t-7 -25.5t-23.5 -13t-25.5 7l-239 184q-11 9 -13.5 23.5zM137 231q0 -64 43 -109.5 t105 -45.5q60 0 103.5 45.5t43.5 109.5q0 65 -43 110.5t-104 45.5q-62 0 -105 -45t-43 -111z" />
<glyph unicode="&#xf3;" horiz-adv-x="585" d="M63 231q0 96 65 164t157 68q91 0 156 -68.5t65 -163.5v-2q0 -95 -65 -162t-156 -67q-92 0 -157 68t-65 163zM124.5 624.5q2.5 14.5 13.5 23.5l239 184q11 9 25.5 7t23.5 -13t7 -25.5t-13 -23.5l-240 -184q-11 -9 -25.5 -7t-23.5 13t-6.5 25.5zM137 231q0 -64 43 -109.5 t105 -45.5q60 0 103.5 45.5t43.5 109.5q0 65 -43 110.5t-104 45.5q-62 0 -105 -45t-43 -111z" />
<glyph unicode="&#xf4;" horiz-adv-x="585" d="M61 668q25 20 105 102.5t105 103.5q18 14 35 0q25 -21 105 -103.5t105 -102.5q14 -12 -8 -39q-7 -9 -24 -10.5t-26 6.5l-169 173l-170 -173q-9 -8 -26.5 -6.5t-24.5 10.5q-22 26 -7 39zM63 231q0 96 65 164t157 68q91 0 156 -68.5t65 -163.5v-2q0 -95 -65 -162t-156 -67 q-92 0 -157 68t-65 163zM137 231q0 -64 43 -109.5t105 -45.5q60 0 103.5 45.5t43.5 109.5q0 65 -43 110.5t-104 45.5q-62 0 -105 -45t-43 -111z" />
<glyph unicode="&#xf5;" horiz-adv-x="585" d="M-78.5 702.5q-1.5 14.5 7.5 25.5q23 27 39 44.5t41.5 42t50.5 37t48 12.5h6q63 -4 109 -27.5t71 -53.5t45.5 -59.5t46.5 -49.5t61 -19q24 0 45.5 16t53.5 54.5t43 49.5q10 10 24.5 10.5t24.5 -9.5t10 -24t-10 -25q-20 -21 -50.5 -56t-44 -47.5t-39 -24.5t-57.5 -13 q-49 -1 -84 18.5t-56.5 49.5t-44 60t-60.5 53t-91 27h-3q-10 0 -21.5 -6t-21 -13.5t-23.5 -22t-21 -22.5t-21 -25t-17 -21q-9 -11 -23.5 -12.5t-25.5 7.5t-12.5 23.5zM63 231q0 96 65 164t157 68q91 0 156 -68.5t65 -163.5v-2q0 -95 -65 -162t-156 -67q-92 0 -157 68 t-65 163zM137 231q0 -64 43 -109.5t105 -45.5q60 0 103.5 45.5t43.5 109.5q0 65 -43 110.5t-104 45.5q-62 0 -105 -45t-43 -111z" />
<glyph unicode="&#xf6;" horiz-adv-x="585" d="M63 231q0 96 65 164t157 68q91 0 156 -68.5t65 -163.5v-2q0 -95 -65 -162t-156 -67q-92 0 -157 68t-65 163zM71 639q0 23 15 38t38 15q22 0 36.5 -15t14.5 -38q0 -22 -14.5 -37.5t-36.5 -15.5q-23 0 -38 15.5t-15 37.5zM137 231q0 -64 43 -109.5t105 -45.5 q60 0 103.5 45.5t43.5 109.5q0 65 -43 110.5t-104 45.5q-62 0 -105 -45t-43 -111zM394 639q0 23 15 38t38 15q22 0 37 -15t15 -38q0 -22 -15 -37.5t-37 -15.5q-23 0 -38 15.5t-15 37.5z" />
<glyph unicode="&#xf7;" d="M70 307q0 14 10 24.5t24 10.5h498q14 0 24.5 -10.5t10.5 -24.5t-10.5 -24.5t-24.5 -10.5h-498q-14 0 -24 10.5t-10 24.5zM299 465q0 23 15 38t38 15q22 0 36.5 -15t14.5 -38q0 -22 -14.5 -37.5t-36.5 -15.5q-23 0 -38 15.5t-15 37.5zM303 129q0 23 15 38t38 15 q22 0 37 -15t15 -38q0 -22 -15 -37.5t-37 -15.5q-23 0 -38 15.5t-15 37.5z" />
<glyph unicode="&#xf8;" horiz-adv-x="587" d="M66 231q0 96 64.5 164t156.5 68q91 0 156 -68.5t65 -163.5v-2q0 -95 -65 -162t-156 -67q-92 0 -156.5 67.5t-64.5 163.5zM81 34q-19 20 5 44l352 352q24 24 44 5q8 -8 6.5 -21t-11.5 -23l-352 -352q-10 -10 -23 -11.5t-21 6.5zM139 231q0 -64 43 -109.5t105 -45.5 q60 0 103.5 45.5t43.5 109.5q0 65 -43 110.5t-104 45.5q-62 0 -105 -45t-43 -111z" />
<glyph unicode="&#xf9;" horiz-adv-x="540" d="M74 197v229q0 22 18 31q6 6 17 6q9 0 18 -6q18 -11 18 -31v-229q0 -53 36.5 -90t88.5 -37q54 0 90.5 37t36.5 90v229q0 22 19 31q6 6 16 6t19 -6q18 -11 18 -31v-229v-41v-119q0 -20 -18 -31q-17 -10 -35 0q-19 10 -19 31v10q-57 -47 -127 -47q-88 0 -161 84 q-35 49 -35 113zM118 800.5q-2 14.5 7 25.5t23.5 13t25.5 -7l239 -184q11 -9 13.5 -23.5t-6.5 -25.5t-23.5 -13t-25.5 7l-240 184q-11 9 -13 23.5z" />
<glyph unicode="&#xfa;" horiz-adv-x="540" d="M74 197v229q0 22 18 31q6 6 17 6q9 0 18 -6q18 -11 18 -31v-229q0 -53 36.5 -90t88.5 -37q54 0 90.5 37t36.5 90v229q0 22 19 31q6 6 16 6t19 -6q18 -11 18 -31v-229v-41v-119q0 -20 -18 -31q-17 -10 -35 0q-19 10 -19 31v10q-57 -47 -127 -47q-88 0 -161 84 q-35 49 -35 113zM114.5 624.5q2.5 14.5 13.5 23.5l239 184q11 9 25.5 7t23.5 -13t7 -25.5t-13 -23.5l-240 -184q-11 -9 -25.5 -7t-23.5 13t-6.5 25.5z" />
<glyph unicode="&#xfb;" horiz-adv-x="540" d="M43 668q25 20 105 102.5t105 103.5q17 14 35 0q25 -21 105 -103.5t105 -102.5q14 -12 -9 -39q-7 -9 -23.5 -10.5t-25.5 6.5l-170 173l-169 -173q-9 -8 -27 -6.5t-25 10.5q-22 26 -6 39zM74 197v229q0 22 18 31q6 6 17 6q9 0 18 -6q18 -11 18 -31v-229q0 -53 36.5 -90 t88.5 -37q54 0 90.5 37t36.5 90v229q0 22 19 31q6 6 16 6t19 -6q18 -11 18 -31v-229v-41v-119q0 -20 -18 -31q-17 -10 -35 0q-19 10 -19 31v10q-57 -47 -127 -47q-88 0 -161 84q-35 49 -35 113z" />
<glyph unicode="&#xfc;" horiz-adv-x="540" d="M74 197v229q0 22 18 31q6 6 17 6q9 0 18 -6q18 -11 18 -31v-229q0 -53 36.5 -90t88.5 -37q54 0 90.5 37t36.5 90v229q0 22 19 31q6 6 16 6t19 -6q18 -11 18 -31v-229v-41v-119q0 -20 -18 -31q-17 -10 -35 0q-19 10 -19 31v10q-57 -47 -127 -47q-88 0 -161 84 q-35 49 -35 113zM108 639q0 23 15 38t38 15q22 0 36.5 -15t14.5 -38q0 -22 -14.5 -37.5t-36.5 -15.5q-23 0 -38 15.5t-15 37.5zM329 639q0 23 15 38t38 15q22 0 36.5 -15t14.5 -38q0 -22 -14.5 -37.5t-36.5 -15.5q-23 0 -38 15.5t-15 37.5z" />
<glyph unicode="&#xfd;" horiz-adv-x="538" d="M29 -440q0 4 4 16l194 424l-190 416q-2 4 -2 14q0 24 20 33q4 2 15 2q21 0 30 -21l166 -362l168 367q10 20 33 20q19 0 29 -16q6 -9 6 -19q0 -6 -4 -14l-402 -873q-6 -22 -30 -22q-18 0 -29 14q-8 12 -8 21zM110 630.5q2 14.5 13 23.5l240 185q11 9 25.5 6.5t23.5 -13.5 t7 -25.5t-13 -23.5l-240 -184q-11 -9 -25.5 -7t-23.5 13t-7 25.5z" />
<glyph unicode="&#xfe;" horiz-adv-x="591" d="M72 -438v1339q0 15 9.5 26t22.5 11h2q15 0 25 -10t10 -27v-510q63 66 152 66q91 0 155 -70t64 -168v-2q0 -97 -64 -166t-155 -69q-88 0 -152 67v-487q0 -21 -18 -33q-8 -4 -17 -4q-6 0 -18 4q-16 13 -16 33zM147 219q0 -66 43 -113t103 -47t103.5 47t43.5 113 q0 67 -43.5 114.5t-103.5 47.5h-2q-60 0 -102 -47.5t-42 -114.5z" />
<glyph unicode="&#xff;" horiz-adv-x="538" d="M29 -440q0 4 4 16l194 424l-190 416q-2 4 -2 14q0 24 20 33q4 2 15 2q21 0 30 -21l166 -362l168 367q10 20 33 20q19 0 29 -16q6 -9 6 -19q0 -6 -4 -14l-402 -873q-6 -22 -30 -22q-18 0 -29 14q-8 12 -8 21zM116 645q0 23 15 38t38 15q22 0 36.5 -15t14.5 -38 q0 -22 -14.5 -37.5t-36.5 -15.5q-23 0 -38 15.5t-15 37.5zM337 645q0 23 15 38t38 15q22 0 36.5 -15t14.5 -38q0 -22 -14.5 -37.5t-36.5 -15.5q-23 0 -38 15.5t-15 37.5z" />
<glyph unicode="&#x152;" horiz-adv-x="1310" d="M78 471q0 131 53 239t153 172t228 64q145 0 209 -88v88h498q18 0 26 -11.5t8 -21.5q0 -5 -2.5 -12t-11 -14.5t-20.5 -7.5h-428v-375h225q21 0 31 -17t0 -34q-9 -19 -31 -19h-225v-364h428q15 0 24.5 -11.5t9.5 -23.5q0 -5 -2.5 -12.5t-11 -15t-20.5 -7.5h-498v83 q-65 -89 -209 -89q-192 0 -313 138t-121 339zM147 471q0 -113 43.5 -205.5t127.5 -147.5t194 -55q66 0 108.5 20t63.5 62t28.5 87.5t8.5 115.5v245q-1 70 -8.5 115t-28.5 87t-63.5 62t-108.5 20q-165 0 -265 -117t-100 -289z" />
<glyph unicode="&#x153;" horiz-adv-x="905" d="M70 264q0 78 41 133q29 40 75 63t95 23h2q39 0 97.5 -27t80.5 -59q9 5 18.5 24.5t20.5 26.5q70 41 114 41h9q75 0 133 -49q46 -37 71 -102q2 -4 2 -12h2q0 -3 1.5 -8.5t1.5 -8.5q0 -5 -1.5 -19.5t-1.5 -25.5h-327q0 -20 -2 -56v-26q2 -50 30 -76q40 -32 93 -32 q74 0 120 67q10 17 31 17q18 0 29 -23q7 -20 -4 -37q-32 -47 -79 -72.5t-99 -25.5q-65 0 -121 41l-37 35q-32 -27 -85 -51.5t-89 -24.5q-58 0 -105 23q-49 24 -81.5 69t-32.5 96q0 12 -1 38t-1 38zM139 262q0 -4 1 -13t1 -24q0 -43 6 -61q12 -36 43 -61t70 -31q4 0 13.5 -1 t13.5 -1q27 0 57 10q36 14 61 47t25 70q0 20 2 58q0 6 -0.5 13t-1.5 15t-1 13q-11 61 -62 95q-36 23 -86 23q-3 0 -10.5 -1t-10.5 -1q-40 -6 -71 -33t-42 -64q-8 -24 -8 -53zM502 339q4 -9 2 -13h254q-12 27 -43 55q-41 35 -94 35q-70 0 -119 -68v-9z" />
<glyph unicode="&#x178;" horiz-adv-x="798" d="M-39 899q0 6 4 14q9 19 31 19q16 0 29 -10l319 -406l318 406q13 10 30 10q12 0 21 -6q12 -12 12 -27q0 -9 -4 -25l-340 -430v-409q0 -19 -19 -29q-9 -6 -18 -6q-11 0 -20 6q-19 11 -19 29v409l-338 433q-6 9 -6 22zM181 1122q0 23 15 38.5t38 15.5q22 0 37 -15.5 t15 -38.5q0 -22 -15 -37.5t-37 -15.5q-23 0 -38 15.5t-15 37.5zM402 1122q0 23 15.5 38.5t38.5 15.5q22 0 36.5 -15.5t14.5 -38.5q0 -22 -14.5 -37.5t-36.5 -15.5q-23 0 -38.5 15.5t-15.5 37.5z" />
<glyph unicode="&#x2c6;" horiz-adv-x="2048" d="M86 729q25 20 105 103.5t105 103.5q18 14 35 0q25 -20 105 -103.5t105 -103.5q14 -12 -9 -39q-7 -9 -23.5 -10.5t-25.5 6.5l-170 174l-169 -174q-9 -8 -27 -6.5t-25 10.5q-22 26 -6 39z" />
<glyph unicode="&#x2dc;" horiz-adv-x="450" d="M42 717q59 153 96 153q36 0 61 -33t35.5 -72.5t26 -71.5t35.5 -31q16 1 29.5 22.5t33.5 66.5q5 11 7 16q12 25 24 1q13 -26 0 -53q-48 -106 -68 -130q-20 -25 -43 -26q-24 -1 -39.5 19.5t-23.5 51.5t-16.5 62.5t-25.5 55.5t-44 27q-21 0 -62 -106q-4 -12 -11.5 -13.5 t-12.5 8.5q-13 24 -2 53z" />
<glyph unicode="&#x2000;" horiz-adv-x="682" />
<glyph unicode="&#x2001;" horiz-adv-x="1365" />
<glyph unicode="&#x2002;" horiz-adv-x="682" />
<glyph unicode="&#x2003;" horiz-adv-x="1365" />
<glyph unicode="&#x2004;" horiz-adv-x="455" />
<glyph unicode="&#x2005;" horiz-adv-x="341" />
<glyph unicode="&#x2006;" horiz-adv-x="227" />
<glyph unicode="&#x2007;" horiz-adv-x="227" />
<glyph unicode="&#x2008;" horiz-adv-x="170" />
<glyph unicode="&#x2009;" horiz-adv-x="273" />
<glyph unicode="&#x200a;" horiz-adv-x="75" />
<glyph unicode="&#x2010;" d="M70 307q0 14 10 24.5t24 10.5h498q14 0 24.5 -10.5t10.5 -24.5t-10.5 -24.5t-24.5 -10.5h-498q-14 0 -24 10.5t-10 24.5z" />
<glyph unicode="&#x2011;" d="M70 307q0 14 10 24.5t24 10.5h498q14 0 24.5 -10.5t10.5 -24.5t-10.5 -24.5t-24.5 -10.5h-498q-14 0 -24 10.5t-10 24.5z" />
<glyph unicode="&#x2012;" d="M70 307q0 14 10 24.5t24 10.5h498q14 0 24.5 -10.5t10.5 -24.5t-10.5 -24.5t-24.5 -10.5h-498q-14 0 -24 10.5t-10 24.5z" />
<glyph unicode="&#x2013;" d="M70 307q0 14 10 24.5t24 10.5h498q14 0 24.5 -10.5t10.5 -24.5t-10.5 -24.5t-24.5 -10.5h-498q-14 0 -24 10.5t-10 24.5z" />
<glyph unicode="&#x2014;" horiz-adv-x="1003" d="M70 307q0 14 10 24.5t24 10.5h805q14 0 24.5 -10.5t10.5 -24.5t-10.5 -24.5t-24.5 -10.5h-805q-14 0 -24 10.5t-10 24.5z" />
<glyph unicode="&#x2018;" horiz-adv-x="264" d="M69 772q0 25 50 96.5t71 71.5q9 0 10.5 -15t-2 -38t-8.5 -46t-9.5 -43t-4.5 -26q0 -22 -16 -37.5t-38 -15.5t-37.5 15.5t-15.5 37.5z" />
<glyph unicode="&#x2019;" horiz-adv-x="264" d="M57.5 734q-1.5 15 2 38t8.5 46t9.5 43t4.5 26q0 22 15.5 37.5t37.5 15.5t37.5 -15.5t15.5 -37.5q0 -25 -49.5 -96.5t-70.5 -71.5q-9 0 -10.5 15z" />
<glyph unicode="&#x201a;" horiz-adv-x="264" d="M57.5 -111q-1.5 14 2 36.5t8.5 45t9.5 43.5t4.5 29q0 22 15.5 37.5t37.5 15.5t37.5 -15.5t15.5 -37.5q0 -25 -49.5 -96.5t-70.5 -71.5q-9 0 -10.5 14z" />
<glyph unicode="&#x201c;" horiz-adv-x="485" d="M69 772q0 25 50 96.5t71 71.5q9 0 10.5 -15t-2 -38t-8.5 -46t-9.5 -43t-4.5 -26q0 -22 -16 -37.5t-38 -15.5t-37.5 15.5t-15.5 37.5zM303 772q0 25 49.5 96.5t70.5 71.5q9 0 10.5 -15t-2 -38t-8.5 -46t-9.5 -43t-4.5 -26q0 -22 -15.5 -37.5t-37.5 -15.5t-37.5 15.5 t-15.5 37.5z" />
<glyph unicode="&#x201d;" horiz-adv-x="485" d="M44.5 734q-1.5 15 2.5 38t9 46t9.5 43t4.5 26q0 22 15.5 37.5t37.5 15.5t37.5 -15.5t15.5 -37.5q0 -25 -50 -96.5t-71 -71.5q-9 0 -10.5 15zM278.5 734q-1.5 15 2 38t8.5 46t9.5 43t4.5 26q0 22 15.5 37.5t37.5 15.5t38 -15.5t16 -37.5q0 -25 -50 -96.5t-71 -71.5 q-9 0 -10.5 15z" />
<glyph unicode="&#x201e;" horiz-adv-x="489" d="M57.5 -111q-1.5 14 2 36.5t8.5 45t9.5 43.5t4.5 29q0 22 15.5 37.5t37.5 15.5t37.5 -15.5t15.5 -37.5q0 -25 -49.5 -96.5t-70.5 -71.5q-9 0 -10.5 14zM282.5 -111q-1.5 14 2 36.5t8.5 45t9.5 43.5t4.5 29q0 22 15.5 37.5t37.5 15.5t38 -15.5t16 -37.5q0 -25 -50 -96.5 t-71 -71.5q-9 0 -10.5 14z" />
<glyph unicode="&#x2022;" horiz-adv-x="389" d="M49 479q0 53 32.5 91t78.5 38t78 -38t32 -91t-32 -91t-78 -38t-78.5 38t-32.5 91z" />
<glyph unicode="&#x2026;" horiz-adv-x="907" d="M74 51q0 23 15 38t38 15q22 0 36.5 -15t14.5 -38q0 -22 -14.5 -37.5t-36.5 -15.5q-23 0 -38 15.5t-15 37.5zM401 51q0 23 15.5 38t38.5 15q22 0 36.5 -15t14.5 -38q0 -22 -14.5 -37.5t-36.5 -15.5q-23 0 -38.5 15.5t-15.5 37.5zM739 53q0 23 15.5 38t38.5 15 q22 0 36.5 -15t14.5 -38q0 -22 -14.5 -37.5t-36.5 -15.5q-23 0 -38.5 15.5t-15.5 37.5z" />
<glyph unicode="&#x202f;" horiz-adv-x="273" />
<glyph unicode="&#x2039;" horiz-adv-x="522" d="M91 344q0 17 14 28l313 231q11 8 26 6t23 -13t6 -26t-13 -23l-275 -202l274 -194q12 -8 14 -22t-6 -26t-22 -14.5t-26 5.5l-314 221q-14 10 -14 29z" />
<glyph unicode="&#x203a;" horiz-adv-x="534" d="M52 129q-2 -14 6 -26t22.5 -14.5t26.5 5.5l313 221q15 11 15 29q0 17 -14 28l-314 231q-11 8 -25.5 6t-22.5 -13t-6 -26t13 -23l274 -202l-274 -194q-12 -8 -14 -22z" />
<glyph unicode="&#x205f;" horiz-adv-x="341" />
<glyph unicode="&#x20ac;" horiz-adv-x="1038" d="M-2 342q0 15 9.5 24t27.5 9h634q18 0 28 -9t10 -24t-10 -24t-28 -9h-634q-18 0 -27.5 9t-9.5 24zM-2 548q0 13 10 23.5t29 10.5h725q19 0 28 -10t9 -24q0 -30 -37 -30h-725q-39 0 -39 30zM76 473q0 175 121 311q71 81 171 121.5t210 40.5q172 0 307 -117q18 -14 49 -49 q8 -8 8 -22q0 -9 -2 -13q-6 -18 -29 -22q-22 -3 -34 12q-20 23 -43 43q-117 99 -271 99q-87 0 -167.5 -35.5t-141.5 -102.5q-102 -114 -102 -266q0 -87 36 -166.5t105 -138.5q116 -98 270 -98q88 0 169 35.5t140 101.5q12 12 29 12t25 -8q14 -10 14 -27q0 -12 -10 -22 q-69 -79 -165.5 -120.5t-201.5 -41.5q-186 0 -321 117q-80 68 -123 162t-43 194z" />
<glyph unicode="&#x2122;" horiz-adv-x="985" d="M-19 901q0 23 2 29q7 7 16 7h165h2h3h166q10 0 15 -7q3 -4 3 -29q0 -3 -3 -8q-5 -7 -15 -7h-130v-339q0 -5 -14.5 -9t-24.5 -4q-9 0 -23 4t-14 9v339h-130q-9 0 -16 7q-2 6 -2 8zM420 549v371q0 2 24 9.5t34 7.5q8 0 15 -11l178 -324l177 324q7 11 15 11q12 0 35 -5.5 t23 -11.5v-371q0 -8 -8 -13q-6 -2 -29 -2q-4 0 -8 2q-9 4 -9 13v309l-182 -316q-6 -8 -14 -8q-9 0 -15 8l-183 316v-309q0 -9 -7 -13q-6 -2 -8 -2q-24 0 -30 2q-8 5 -8 13z" />
<glyph unicode="&#x25fc;" horiz-adv-x="471" d="M0 0v471h471v-471h-471z" />
</font>
</defs>
</svg>
